G75*
%MOIN*%
%OFA0B0*%
%FSLAX25Y25*%
%IPPOS*%
%LPD*%
%AMOC8*
5,1,8,0,0,1.08239X$1,22.5*
%
%ADD10C,0.00000*%
%ADD11C,0.07400*%
%ADD12OC8,0.05200*%
%ADD13C,0.05150*%
%ADD14C,0.05937*%
%ADD15C,0.05200*%
%ADD16C,0.11220*%
%ADD17C,0.05200*%
%ADD18C,0.01600*%
%ADD19C,0.02400*%
%ADD20C,0.03562*%
D10*
X0011800Y0021800D02*
X0011800Y0218650D01*
X0208650Y0218650D01*
X0208650Y0021800D01*
X0011800Y0021800D01*
D11*
X0020800Y0028800D03*
X0040800Y0028800D03*
X0053800Y0081800D03*
X0053800Y0091800D03*
X0053800Y0101800D03*
X0016800Y0096800D03*
X0016800Y0086800D03*
X0016800Y0106800D03*
X0016800Y0116800D03*
X0016800Y0126800D03*
X0016800Y0136800D03*
X0016800Y0146800D03*
X0016800Y0156800D03*
X0018300Y0212300D03*
X0028300Y0212300D03*
X0038300Y0212300D03*
X0048300Y0212300D03*
X0058300Y0212300D03*
X0068300Y0212300D03*
X0092800Y0211800D03*
X0112800Y0211800D03*
X0204300Y0156800D03*
X0204300Y0146800D03*
X0204300Y0136800D03*
X0204300Y0126800D03*
X0204300Y0116800D03*
X0204300Y0106800D03*
X0204300Y0096800D03*
X0204300Y0086800D03*
D12*
X0175800Y0038800D03*
X0175800Y0027300D03*
X0135800Y0027300D03*
X0135800Y0038800D03*
X0106800Y0026800D03*
X0096800Y0026800D03*
X0081800Y0026800D03*
X0071800Y0026800D03*
X0058650Y0056036D03*
X0048650Y0056036D03*
X0031800Y0046800D03*
X0031800Y0086800D03*
X0123095Y0175950D03*
X0123095Y0185950D03*
X0111800Y0191800D03*
X0133233Y0169950D03*
X0133233Y0159950D03*
X0145800Y0159800D03*
X0145800Y0169800D03*
X0158052Y0169650D03*
X0158052Y0159650D03*
X0136800Y0180800D03*
X0144300Y0185800D03*
X0136800Y0190800D03*
X0071800Y0191800D03*
X0133414Y0112824D03*
D13*
X0181146Y0189595D03*
X0185871Y0192745D03*
X0181146Y0195894D03*
X0185871Y0199044D03*
X0181146Y0202194D03*
X0154398Y0208670D03*
X0146524Y0208670D03*
X0138650Y0208670D03*
D14*
X0130776Y0208670D03*
X0162272Y0208670D03*
D15*
X0108829Y0176367D02*
X0103629Y0176367D01*
X0103629Y0166367D02*
X0108829Y0166367D01*
X0108829Y0156367D02*
X0103629Y0156367D01*
X0103629Y0146367D02*
X0108829Y0146367D01*
X0108829Y0136367D02*
X0103629Y0136367D01*
X0103629Y0126367D02*
X0108829Y0126367D01*
X0108829Y0116367D02*
X0103629Y0116367D01*
X0103629Y0106367D02*
X0108829Y0106367D01*
X0108829Y0096367D02*
X0103629Y0096367D01*
X0103629Y0086367D02*
X0108829Y0086367D01*
X0108829Y0076367D02*
X0103629Y0076367D01*
X0103629Y0066367D02*
X0108829Y0066367D01*
X0108829Y0056367D02*
X0103629Y0056367D01*
X0103629Y0046367D02*
X0108829Y0046367D01*
X0078829Y0046367D02*
X0073629Y0046367D01*
X0073629Y0056367D02*
X0078829Y0056367D01*
X0078829Y0066367D02*
X0073629Y0066367D01*
X0073629Y0076367D02*
X0078829Y0076367D01*
X0078829Y0086367D02*
X0073629Y0086367D01*
X0073629Y0096367D02*
X0078829Y0096367D01*
X0078829Y0106367D02*
X0073629Y0106367D01*
X0073629Y0116367D02*
X0078829Y0116367D01*
X0078829Y0126367D02*
X0073629Y0126367D01*
X0073629Y0136367D02*
X0078829Y0136367D01*
X0078829Y0146367D02*
X0073629Y0146367D01*
X0073629Y0156367D02*
X0078829Y0156367D01*
X0078829Y0166367D02*
X0073629Y0166367D01*
X0073629Y0176367D02*
X0078829Y0176367D01*
D16*
X0201225Y0181524D03*
X0201225Y0210265D03*
D17*
X0133414Y0092824D03*
D18*
X0130265Y0095332D02*
X0112730Y0095332D01*
X0112829Y0095571D02*
X0112829Y0097163D01*
X0112220Y0098633D01*
X0111095Y0099758D01*
X0109625Y0100367D01*
X0102833Y0100367D01*
X0101363Y0099758D01*
X0100238Y0098633D01*
X0099629Y0097163D01*
X0099629Y0095571D01*
X0100238Y0094101D01*
X0101363Y0092976D01*
X0102833Y0092367D01*
X0109625Y0092367D01*
X0111095Y0092976D01*
X0112220Y0094101D01*
X0112829Y0095571D01*
X0112829Y0096930D02*
X0164200Y0096930D01*
X0164200Y0095332D02*
X0136563Y0095332D01*
X0136805Y0095089D02*
X0135680Y0096215D01*
X0134210Y0096824D01*
X0132619Y0096824D01*
X0131148Y0096215D01*
X0130023Y0095089D01*
X0129414Y0093619D01*
X0129414Y0092028D01*
X0130023Y0090558D01*
X0131148Y0089433D01*
X0132619Y0088824D01*
X0134210Y0088824D01*
X0135680Y0089433D01*
X0136805Y0090558D01*
X0137414Y0092028D01*
X0137414Y0093619D01*
X0136805Y0095089D01*
X0137367Y0093733D02*
X0164200Y0093733D01*
X0164200Y0092134D02*
X0137414Y0092134D01*
X0136783Y0090536D02*
X0164200Y0090536D01*
X0164200Y0088937D02*
X0134485Y0088937D01*
X0132344Y0088937D02*
X0112400Y0088937D01*
X0112592Y0088673D02*
X0112185Y0089233D01*
X0111696Y0089723D01*
X0111135Y0090130D01*
X0110518Y0090445D01*
X0109859Y0090659D01*
X0109175Y0090767D01*
X0106229Y0090767D01*
X0103283Y0090767D01*
X0102599Y0090659D01*
X0101940Y0090445D01*
X0101323Y0090130D01*
X0100763Y0089723D01*
X0100273Y0089233D01*
X0099866Y0088673D01*
X0099551Y0088056D01*
X0099337Y0087397D01*
X0099229Y0086713D01*
X0099229Y0086367D01*
X0106229Y0086367D01*
X0106229Y0086367D01*
X0106229Y0090767D01*
X0106229Y0086367D01*
X0106229Y0086367D01*
X0099229Y0086367D01*
X0099229Y0086021D01*
X0099337Y0085337D01*
X0099551Y0084678D01*
X0099866Y0084061D01*
X0100273Y0083501D01*
X0100763Y0083011D01*
X0101323Y0082604D01*
X0101940Y0082289D01*
X0102599Y0082075D01*
X0103283Y0081967D01*
X0106229Y0081967D01*
X0106229Y0086367D01*
X0106229Y0086367D01*
X0113229Y0086367D01*
X0113229Y0086713D01*
X0113121Y0087397D01*
X0112907Y0088056D01*
X0112592Y0088673D01*
X0113130Y0087339D02*
X0164200Y0087339D01*
X0164200Y0085740D02*
X0113185Y0085740D01*
X0113229Y0086021D02*
X0113121Y0085337D01*
X0112907Y0084678D01*
X0112592Y0084061D01*
X0112185Y0083501D01*
X0111696Y0083011D01*
X0111135Y0082604D01*
X0110518Y0082289D01*
X0109859Y0082075D01*
X0109175Y0081967D01*
X0106229Y0081967D01*
X0106229Y0086367D01*
X0106229Y0086367D01*
X0113229Y0086367D01*
X0113229Y0086021D01*
X0112634Y0084142D02*
X0164200Y0084142D01*
X0164200Y0082543D02*
X0111017Y0082543D01*
X0109625Y0080367D02*
X0111095Y0079758D01*
X0112220Y0078633D01*
X0112829Y0077163D01*
X0112829Y0075571D01*
X0112220Y0074101D01*
X0111095Y0072976D01*
X0109625Y0072367D01*
X0102833Y0072367D01*
X0101363Y0072976D01*
X0100238Y0074101D01*
X0099629Y0075571D01*
X0099629Y0077163D01*
X0100238Y0078633D01*
X0101363Y0079758D01*
X0102833Y0080367D01*
X0109625Y0080367D01*
X0111506Y0079346D02*
X0164200Y0079346D01*
X0164200Y0077748D02*
X0112587Y0077748D01*
X0112829Y0076149D02*
X0164200Y0076149D01*
X0164200Y0074551D02*
X0112406Y0074551D01*
X0111038Y0072952D02*
X0164200Y0072952D01*
X0164200Y0071354D02*
X0094400Y0071354D01*
X0094400Y0072952D02*
X0101420Y0072952D01*
X0100052Y0074551D02*
X0094400Y0074551D01*
X0094400Y0076149D02*
X0099629Y0076149D01*
X0099872Y0077748D02*
X0094400Y0077748D01*
X0094400Y0079346D02*
X0100952Y0079346D01*
X0101441Y0082543D02*
X0094400Y0082543D01*
X0094400Y0080945D02*
X0164200Y0080945D01*
X0169400Y0080945D02*
X0179600Y0080945D01*
X0179600Y0082543D02*
X0169400Y0082543D01*
X0169400Y0084142D02*
X0179600Y0084142D01*
X0179600Y0085740D02*
X0169400Y0085740D01*
X0169400Y0087339D02*
X0179600Y0087339D01*
X0179600Y0088937D02*
X0169400Y0088937D01*
X0169400Y0090536D02*
X0179600Y0090536D01*
X0179600Y0092134D02*
X0169400Y0092134D01*
X0169400Y0093733D02*
X0175892Y0093733D01*
X0176167Y0093619D02*
X0177433Y0093619D01*
X0178602Y0094103D01*
X0179497Y0094998D01*
X0179600Y0095247D01*
X0179600Y0079099D01*
X0179103Y0078602D01*
X0178619Y0077433D01*
X0178619Y0076167D01*
X0179103Y0074998D01*
X0179998Y0074103D01*
X0181167Y0073619D01*
X0182433Y0073619D01*
X0183602Y0074103D01*
X0184497Y0074998D01*
X0184981Y0076167D01*
X0184981Y0077433D01*
X0184497Y0078602D01*
X0184000Y0079099D01*
X0184000Y0100889D01*
X0186730Y0103619D01*
X0187433Y0103619D01*
X0188602Y0104103D01*
X0189497Y0104998D01*
X0189600Y0105247D01*
X0189600Y0052711D01*
X0186870Y0049981D01*
X0186167Y0049981D01*
X0184998Y0049497D01*
X0184103Y0048602D01*
X0183619Y0047433D01*
X0183619Y0046167D01*
X0184103Y0044998D01*
X0184998Y0044103D01*
X0186167Y0043619D01*
X0187433Y0043619D01*
X0188602Y0044103D01*
X0189497Y0044998D01*
X0189981Y0046167D01*
X0189981Y0046870D01*
X0194000Y0050889D01*
X0194000Y0197711D01*
X0190467Y0201244D01*
X0189262Y0201244D01*
X0189241Y0201296D01*
X0188122Y0202414D01*
X0186662Y0203019D01*
X0185445Y0203019D01*
X0185414Y0203218D01*
X0185201Y0203873D01*
X0184888Y0204487D01*
X0184483Y0205044D01*
X0183996Y0205531D01*
X0183439Y0205935D01*
X0182826Y0206248D01*
X0182171Y0206461D01*
X0181491Y0206568D01*
X0181147Y0206568D01*
X0181147Y0202194D01*
X0181146Y0202194D01*
X0181146Y0202194D01*
X0176772Y0202194D01*
X0176772Y0202538D01*
X0176879Y0203218D01*
X0177092Y0203873D01*
X0177405Y0204487D01*
X0177810Y0205044D01*
X0178296Y0205531D01*
X0178854Y0205935D01*
X0179467Y0206248D01*
X0180122Y0206461D01*
X0180802Y0206568D01*
X0181146Y0206568D01*
X0181146Y0202194D01*
X0176772Y0202194D01*
X0176772Y0201849D01*
X0176879Y0201169D01*
X0177092Y0200514D01*
X0177405Y0199901D01*
X0177810Y0199344D01*
X0178296Y0198857D01*
X0178407Y0198776D01*
X0177777Y0198146D01*
X0177755Y0198094D01*
X0175983Y0198094D01*
X0174889Y0197000D01*
X0173600Y0195711D01*
X0173600Y0124981D01*
X0173167Y0124981D01*
X0171998Y0124497D01*
X0171103Y0123602D01*
X0170619Y0122433D01*
X0170619Y0121167D01*
X0171103Y0119998D01*
X0171998Y0119103D01*
X0173167Y0118619D01*
X0174433Y0118619D01*
X0175602Y0119103D01*
X0176497Y0119998D01*
X0176981Y0121167D01*
X0176981Y0121870D01*
X0178000Y0122889D01*
X0178000Y0187121D01*
X0178895Y0186226D01*
X0180356Y0185620D01*
X0181937Y0185620D01*
X0183398Y0186226D01*
X0183600Y0186428D01*
X0183600Y0134099D01*
X0183103Y0133602D01*
X0182619Y0132433D01*
X0182619Y0131167D01*
X0183103Y0129998D01*
X0183998Y0129103D01*
X0185167Y0128619D01*
X0186433Y0128619D01*
X0187602Y0129103D01*
X0188497Y0129998D01*
X0188981Y0131167D01*
X0188981Y0132433D01*
X0188497Y0133602D01*
X0188000Y0134099D01*
X0188000Y0189325D01*
X0188122Y0189375D01*
X0189241Y0190493D01*
X0189600Y0191361D01*
X0189600Y0108353D01*
X0189497Y0108602D01*
X0188602Y0109497D01*
X0187433Y0109981D01*
X0186167Y0109981D01*
X0184998Y0109497D01*
X0184103Y0108602D01*
X0183619Y0107433D01*
X0183619Y0106730D01*
X0179600Y0102711D01*
X0179600Y0098353D01*
X0179497Y0098602D01*
X0178602Y0099497D01*
X0177433Y0099981D01*
X0177296Y0099981D01*
X0169400Y0107877D01*
X0169400Y0179901D01*
X0169497Y0179998D01*
X0169981Y0181167D01*
X0169981Y0182433D01*
X0169497Y0183602D01*
X0168602Y0184497D01*
X0167433Y0184981D01*
X0166167Y0184981D01*
X0164998Y0184497D01*
X0164103Y0183602D01*
X0163619Y0182433D01*
X0163619Y0181167D01*
X0164103Y0179998D01*
X0164200Y0179901D01*
X0164200Y0068699D01*
X0164103Y0068602D01*
X0163619Y0067433D01*
X0163619Y0066167D01*
X0164103Y0064998D01*
X0164998Y0064103D01*
X0166167Y0063619D01*
X0167433Y0063619D01*
X0168602Y0064103D01*
X0169497Y0064998D01*
X0169981Y0066167D01*
X0169981Y0067433D01*
X0169497Y0068602D01*
X0169400Y0068699D01*
X0169400Y0100523D01*
X0173619Y0096304D01*
X0173619Y0096167D01*
X0174103Y0094998D01*
X0174998Y0094103D01*
X0176167Y0093619D01*
X0177708Y0093733D02*
X0179600Y0093733D01*
X0184000Y0093733D02*
X0189600Y0093733D01*
X0189600Y0092134D02*
X0184000Y0092134D01*
X0184000Y0090536D02*
X0189600Y0090536D01*
X0189600Y0088937D02*
X0184000Y0088937D01*
X0184000Y0087339D02*
X0189600Y0087339D01*
X0189600Y0085740D02*
X0184000Y0085740D01*
X0184000Y0084142D02*
X0189600Y0084142D01*
X0189600Y0082543D02*
X0184000Y0082543D01*
X0184000Y0080945D02*
X0189600Y0080945D01*
X0189600Y0079346D02*
X0184000Y0079346D01*
X0184851Y0077748D02*
X0189600Y0077748D01*
X0189600Y0076149D02*
X0184974Y0076149D01*
X0184050Y0074551D02*
X0189600Y0074551D01*
X0189600Y0072952D02*
X0169400Y0072952D01*
X0169400Y0071354D02*
X0189600Y0071354D01*
X0189600Y0069755D02*
X0169400Y0069755D01*
X0169681Y0068157D02*
X0189600Y0068157D01*
X0189600Y0066558D02*
X0169981Y0066558D01*
X0169459Y0064960D02*
X0189600Y0064960D01*
X0189600Y0063361D02*
X0111480Y0063361D01*
X0111095Y0062976D02*
X0112220Y0064101D01*
X0112829Y0065571D01*
X0112829Y0067163D01*
X0112220Y0068633D01*
X0111095Y0069758D01*
X0109625Y0070367D01*
X0102833Y0070367D01*
X0101363Y0069758D01*
X0100238Y0068633D01*
X0099629Y0067163D01*
X0099629Y0065571D01*
X0100238Y0064101D01*
X0101363Y0062976D01*
X0102833Y0062367D01*
X0109625Y0062367D01*
X0111095Y0062976D01*
X0112576Y0064960D02*
X0164141Y0064960D01*
X0163619Y0066558D02*
X0112829Y0066558D01*
X0112417Y0068157D02*
X0163919Y0068157D01*
X0164200Y0069755D02*
X0111098Y0069755D01*
X0109625Y0060367D02*
X0102833Y0060367D01*
X0101363Y0059758D01*
X0100238Y0058633D01*
X0099629Y0057163D01*
X0099629Y0055571D01*
X0100238Y0054101D01*
X0101363Y0052976D01*
X0102833Y0052367D01*
X0109625Y0052367D01*
X0111095Y0052976D01*
X0112220Y0054101D01*
X0112829Y0055571D01*
X0112829Y0057163D01*
X0112220Y0058633D01*
X0111095Y0059758D01*
X0109625Y0060367D01*
X0110114Y0060164D02*
X0189600Y0060164D01*
X0189600Y0058566D02*
X0112248Y0058566D01*
X0112829Y0056967D02*
X0189600Y0056967D01*
X0189600Y0055369D02*
X0112745Y0055369D01*
X0111889Y0053770D02*
X0189600Y0053770D01*
X0189060Y0052172D02*
X0096675Y0052172D01*
X0096497Y0052602D02*
X0095602Y0053497D01*
X0094433Y0053981D01*
X0093167Y0053981D01*
X0091998Y0053497D01*
X0091103Y0052602D01*
X0090619Y0051433D01*
X0090619Y0050167D01*
X0091103Y0048998D01*
X0091998Y0048103D01*
X0093167Y0047619D01*
X0093870Y0047619D01*
X0094600Y0046889D01*
X0094600Y0030257D01*
X0092800Y0028457D01*
X0092800Y0025143D01*
X0094343Y0023600D01*
X0084257Y0023600D01*
X0085800Y0025143D01*
X0085800Y0028457D01*
X0083457Y0030800D01*
X0080143Y0030800D01*
X0077800Y0028457D01*
X0077800Y0025143D01*
X0079343Y0023600D01*
X0074257Y0023600D01*
X0075800Y0025143D01*
X0075800Y0028457D01*
X0073457Y0030800D01*
X0070143Y0030800D01*
X0067800Y0028457D01*
X0067800Y0025143D01*
X0069343Y0023600D01*
X0022594Y0023600D01*
X0022911Y0023703D01*
X0023683Y0024096D01*
X0024383Y0024605D01*
X0024995Y0025217D01*
X0025504Y0025917D01*
X0025897Y0026689D01*
X0026165Y0027512D01*
X0026300Y0028367D01*
X0026300Y0028600D01*
X0021000Y0028600D01*
X0021000Y0029000D01*
X0020600Y0029000D01*
X0020600Y0034300D01*
X0020367Y0034300D01*
X0019512Y0034165D01*
X0018689Y0033897D01*
X0017917Y0033504D01*
X0017217Y0032995D01*
X0016605Y0032383D01*
X0016096Y0031683D01*
X0015703Y0030911D01*
X0015435Y0030088D01*
X0015300Y0029233D01*
X0015300Y0029000D01*
X0020600Y0029000D01*
X0020600Y0028600D01*
X0015300Y0028600D01*
X0015300Y0028367D01*
X0015435Y0027512D01*
X0015703Y0026689D01*
X0016096Y0025917D01*
X0016605Y0025217D01*
X0017217Y0024605D01*
X0017917Y0024096D01*
X0018689Y0023703D01*
X0019006Y0023600D01*
X0013600Y0023600D01*
X0013600Y0082327D01*
X0013917Y0082096D01*
X0014689Y0081703D01*
X0015512Y0081435D01*
X0016367Y0081300D01*
X0016600Y0081300D01*
X0016600Y0086600D01*
X0017000Y0086600D01*
X0017000Y0087000D01*
X0022300Y0087000D01*
X0022300Y0087233D01*
X0022165Y0088088D01*
X0021897Y0088911D01*
X0021504Y0089683D01*
X0020995Y0090383D01*
X0020383Y0090995D01*
X0019683Y0091504D01*
X0018911Y0091897D01*
X0018563Y0092010D01*
X0019689Y0092476D01*
X0021124Y0093911D01*
X0021257Y0094232D01*
X0022600Y0092889D01*
X0022600Y0050889D01*
X0023889Y0049600D01*
X0027800Y0045689D01*
X0027800Y0045143D01*
X0030143Y0042800D01*
X0033457Y0042800D01*
X0035800Y0045143D01*
X0035800Y0048457D01*
X0033457Y0050800D01*
X0030143Y0050800D01*
X0029527Y0050184D01*
X0027000Y0052711D01*
X0027000Y0094711D01*
X0024000Y0097711D01*
X0024000Y0097711D01*
X0022711Y0099000D01*
X0021409Y0099000D01*
X0021124Y0099689D01*
X0019689Y0101124D01*
X0018056Y0101800D01*
X0019689Y0102476D01*
X0021124Y0103911D01*
X0021900Y0105786D01*
X0021900Y0107814D01*
X0021352Y0109136D01*
X0029600Y0100889D01*
X0029600Y0090257D01*
X0027800Y0088457D01*
X0027800Y0085143D01*
X0030143Y0082800D01*
X0032689Y0082800D01*
X0038600Y0076889D01*
X0038600Y0044099D01*
X0038103Y0043602D01*
X0037619Y0042433D01*
X0037619Y0041167D01*
X0038103Y0039998D01*
X0038998Y0039103D01*
X0040167Y0038619D01*
X0041433Y0038619D01*
X0042602Y0039103D01*
X0043497Y0039998D01*
X0043981Y0041167D01*
X0043981Y0042433D01*
X0043497Y0043602D01*
X0043000Y0044099D01*
X0043000Y0065889D01*
X0046711Y0069600D01*
X0062711Y0069600D01*
X0064000Y0070889D01*
X0067278Y0074167D01*
X0070211Y0074167D01*
X0070238Y0074101D01*
X0071363Y0072976D01*
X0072833Y0072367D01*
X0079625Y0072367D01*
X0081095Y0072976D01*
X0082220Y0074101D01*
X0082829Y0075571D01*
X0082829Y0077163D01*
X0082220Y0078633D01*
X0081095Y0079758D01*
X0079625Y0080367D01*
X0072833Y0080367D01*
X0071363Y0079758D01*
X0070238Y0078633D01*
X0070211Y0078567D01*
X0065456Y0078567D01*
X0060889Y0074000D01*
X0044889Y0074000D01*
X0043000Y0072111D01*
X0043000Y0078711D01*
X0035800Y0085911D01*
X0035800Y0088457D01*
X0034000Y0090257D01*
X0034000Y0102711D01*
X0021615Y0115097D01*
X0021900Y0115786D01*
X0021900Y0117814D01*
X0021124Y0119689D01*
X0019689Y0121124D01*
X0018056Y0121800D01*
X0019689Y0122476D01*
X0021124Y0123911D01*
X0021900Y0125786D01*
X0021900Y0127814D01*
X0021124Y0129689D01*
X0019689Y0131124D01*
X0018056Y0131800D01*
X0019689Y0132476D01*
X0021124Y0133911D01*
X0021900Y0135786D01*
X0021900Y0137814D01*
X0021124Y0139689D01*
X0019689Y0141124D01*
X0018056Y0141800D01*
X0019689Y0142476D01*
X0021124Y0143911D01*
X0021900Y0145786D01*
X0021900Y0147814D01*
X0021124Y0149689D01*
X0019689Y0151124D01*
X0018056Y0151800D01*
X0019689Y0152476D01*
X0021124Y0153911D01*
X0021900Y0155786D01*
X0021900Y0157814D01*
X0021124Y0159689D01*
X0019689Y0161124D01*
X0017814Y0161900D01*
X0015786Y0161900D01*
X0013911Y0161124D01*
X0013600Y0160812D01*
X0013600Y0210320D01*
X0013976Y0209411D01*
X0015411Y0207976D01*
X0017286Y0207200D01*
X0019314Y0207200D01*
X0021189Y0207976D01*
X0022624Y0209411D01*
X0023300Y0211044D01*
X0023976Y0209411D01*
X0025411Y0207976D01*
X0025600Y0207898D01*
X0025600Y0169889D01*
X0026889Y0168600D01*
X0061322Y0134167D01*
X0070211Y0134167D01*
X0070238Y0134101D01*
X0071363Y0132976D01*
X0072833Y0132367D01*
X0079625Y0132367D01*
X0081095Y0132976D01*
X0082220Y0134101D01*
X0082829Y0135571D01*
X0082829Y0137163D01*
X0082220Y0138633D01*
X0081095Y0139758D01*
X0079625Y0140367D01*
X0072833Y0140367D01*
X0071363Y0139758D01*
X0070238Y0138633D01*
X0070211Y0138567D01*
X0063144Y0138567D01*
X0030000Y0171711D01*
X0030000Y0207484D01*
X0031189Y0207976D01*
X0032624Y0209411D01*
X0033300Y0211044D01*
X0033976Y0209411D01*
X0035411Y0207976D01*
X0036600Y0207484D01*
X0036600Y0169889D01*
X0037889Y0168600D01*
X0062322Y0144167D01*
X0070211Y0144167D01*
X0070238Y0144101D01*
X0071363Y0142976D01*
X0072833Y0142367D01*
X0079625Y0142367D01*
X0081095Y0142976D01*
X0082220Y0144101D01*
X0082829Y0145571D01*
X0082829Y0147163D01*
X0082220Y0148633D01*
X0081095Y0149758D01*
X0079625Y0150367D01*
X0072833Y0150367D01*
X0071363Y0149758D01*
X0070238Y0148633D01*
X0070211Y0148567D01*
X0064144Y0148567D01*
X0041000Y0171711D01*
X0041000Y0207898D01*
X0041189Y0207976D01*
X0042624Y0209411D01*
X0043090Y0210537D01*
X0043203Y0210189D01*
X0043596Y0209417D01*
X0044105Y0208717D01*
X0044717Y0208105D01*
X0045417Y0207596D01*
X0046189Y0207203D01*
X0047012Y0206935D01*
X0047867Y0206800D01*
X0048100Y0206800D01*
X0048100Y0212100D01*
X0048500Y0212100D01*
X0048500Y0206800D01*
X0048733Y0206800D01*
X0049588Y0206935D01*
X0050411Y0207203D01*
X0051183Y0207596D01*
X0051883Y0208105D01*
X0052495Y0208717D01*
X0053004Y0209417D01*
X0053397Y0210189D01*
X0053510Y0210537D01*
X0053976Y0209411D01*
X0055411Y0207976D01*
X0057286Y0207200D01*
X0059314Y0207200D01*
X0061189Y0207976D01*
X0062624Y0209411D01*
X0063300Y0211044D01*
X0063976Y0209411D01*
X0065411Y0207976D01*
X0066100Y0207691D01*
X0066100Y0194389D01*
X0067389Y0193100D01*
X0067800Y0192689D01*
X0067800Y0190143D01*
X0070143Y0187800D01*
X0073457Y0187800D01*
X0075800Y0190143D01*
X0075800Y0193457D01*
X0073457Y0195800D01*
X0070911Y0195800D01*
X0070500Y0196211D01*
X0070500Y0207691D01*
X0071189Y0207976D01*
X0072624Y0209411D01*
X0073400Y0211286D01*
X0073400Y0213314D01*
X0072624Y0215189D01*
X0071189Y0216624D01*
X0070641Y0216850D01*
X0091666Y0216850D01*
X0089911Y0216124D01*
X0088476Y0214689D01*
X0087700Y0212814D01*
X0087700Y0210786D01*
X0088476Y0208911D01*
X0089911Y0207476D01*
X0091786Y0206700D01*
X0093814Y0206700D01*
X0095689Y0207476D01*
X0097124Y0208911D01*
X0097900Y0210786D01*
X0097900Y0212814D01*
X0097124Y0214689D01*
X0095689Y0216124D01*
X0093934Y0216850D01*
X0110597Y0216850D01*
X0109917Y0216504D01*
X0109217Y0215995D01*
X0108605Y0215383D01*
X0108096Y0214683D01*
X0107703Y0213911D01*
X0107435Y0213088D01*
X0107300Y0212233D01*
X0107300Y0212000D01*
X0112600Y0212000D01*
X0112600Y0211600D01*
X0113000Y0211600D01*
X0113000Y0212000D01*
X0118300Y0212000D01*
X0118300Y0212233D01*
X0118165Y0213088D01*
X0117897Y0213911D01*
X0117504Y0214683D01*
X0116995Y0215383D01*
X0116383Y0215995D01*
X0115683Y0216504D01*
X0115003Y0216850D01*
X0198806Y0216850D01*
X0197254Y0216208D01*
X0195282Y0214236D01*
X0194215Y0211659D01*
X0194215Y0208870D01*
X0195282Y0206294D01*
X0197254Y0204322D01*
X0199831Y0203254D01*
X0202620Y0203254D01*
X0205196Y0204322D01*
X0206850Y0205976D01*
X0206850Y0185813D01*
X0205196Y0187467D01*
X0202620Y0188535D01*
X0199831Y0188535D01*
X0197254Y0187467D01*
X0195282Y0185495D01*
X0194215Y0182919D01*
X0194215Y0180130D01*
X0195282Y0177553D01*
X0197254Y0175581D01*
X0199831Y0174514D01*
X0202620Y0174514D01*
X0205196Y0175581D01*
X0206850Y0177236D01*
X0206850Y0161264D01*
X0205314Y0161900D01*
X0203286Y0161900D01*
X0201411Y0161124D01*
X0199976Y0159689D01*
X0199200Y0157814D01*
X0199200Y0155786D01*
X0199976Y0153911D01*
X0201411Y0152476D01*
X0203044Y0151800D01*
X0201411Y0151124D01*
X0199976Y0149689D01*
X0199200Y0147814D01*
X0199200Y0145786D01*
X0199976Y0143911D01*
X0201411Y0142476D01*
X0203044Y0141800D01*
X0201411Y0141124D01*
X0199976Y0139689D01*
X0199200Y0137814D01*
X0199200Y0135786D01*
X0199976Y0133911D01*
X0201411Y0132476D01*
X0203044Y0131800D01*
X0201411Y0131124D01*
X0199976Y0129689D01*
X0199200Y0127814D01*
X0199200Y0125786D01*
X0199976Y0123911D01*
X0201411Y0122476D01*
X0203044Y0121800D01*
X0201411Y0121124D01*
X0199976Y0119689D01*
X0199200Y0117814D01*
X0199200Y0115786D01*
X0199976Y0113911D01*
X0201411Y0112476D01*
X0203044Y0111800D01*
X0201411Y0111124D01*
X0199976Y0109689D01*
X0199200Y0107814D01*
X0199200Y0105786D01*
X0199976Y0103911D01*
X0201411Y0102476D01*
X0203044Y0101800D01*
X0201411Y0101124D01*
X0199976Y0099689D01*
X0199200Y0097814D01*
X0199200Y0095786D01*
X0199976Y0093911D01*
X0201411Y0092476D01*
X0202537Y0092010D01*
X0202189Y0091897D01*
X0201417Y0091504D01*
X0200717Y0090995D01*
X0200105Y0090383D01*
X0199596Y0089683D01*
X0199203Y0088911D01*
X0198935Y0088088D01*
X0198800Y0087233D01*
X0198800Y0087000D01*
X0204100Y0087000D01*
X0204100Y0086600D01*
X0204500Y0086600D01*
X0204500Y0081300D01*
X0204733Y0081300D01*
X0205588Y0081435D01*
X0206411Y0081703D01*
X0206850Y0081927D01*
X0206850Y0023600D01*
X0178323Y0023600D01*
X0180200Y0025477D01*
X0180200Y0027300D01*
X0180200Y0029123D01*
X0177623Y0031700D01*
X0175800Y0031700D01*
X0175800Y0027300D01*
X0175800Y0027300D01*
X0180200Y0027300D01*
X0175800Y0027300D01*
X0175800Y0027300D01*
X0175800Y0027300D01*
X0171400Y0027300D01*
X0171400Y0029123D01*
X0173977Y0031700D01*
X0175800Y0031700D01*
X0175800Y0027300D01*
X0171400Y0027300D01*
X0171400Y0025477D01*
X0173277Y0023600D01*
X0137757Y0023600D01*
X0139800Y0025643D01*
X0139800Y0028957D01*
X0137457Y0031300D01*
X0134143Y0031300D01*
X0131800Y0028957D01*
X0131800Y0025643D01*
X0133843Y0023600D01*
X0109257Y0023600D01*
X0110800Y0025143D01*
X0110800Y0028457D01*
X0108457Y0030800D01*
X0105143Y0030800D01*
X0102800Y0028457D01*
X0102800Y0025143D01*
X0104343Y0023600D01*
X0099257Y0023600D01*
X0100800Y0025143D01*
X0100800Y0028457D01*
X0099000Y0030257D01*
X0099000Y0048711D01*
X0096981Y0050730D01*
X0096981Y0051433D01*
X0096497Y0052602D01*
X0094942Y0053770D02*
X0100569Y0053770D01*
X0099713Y0055369D02*
X0089046Y0055369D01*
X0087840Y0054163D02*
X0093273Y0059596D01*
X0094004Y0060327D01*
X0094400Y0061283D01*
X0094400Y0130523D01*
X0099596Y0125327D01*
X0099825Y0125098D01*
X0100238Y0124101D01*
X0101363Y0122976D01*
X0102833Y0122367D01*
X0109625Y0122367D01*
X0111095Y0122976D01*
X0112220Y0124101D01*
X0112829Y0125571D01*
X0112829Y0127163D01*
X0112220Y0128633D01*
X0111095Y0129758D01*
X0109625Y0130367D01*
X0102833Y0130367D01*
X0102180Y0130096D01*
X0094400Y0137877D01*
X0094400Y0165723D01*
X0101568Y0172891D01*
X0102833Y0172367D01*
X0109625Y0172367D01*
X0111095Y0172976D01*
X0112220Y0174101D01*
X0112829Y0175571D01*
X0112829Y0177163D01*
X0112220Y0178633D01*
X0111095Y0179758D01*
X0109625Y0180367D01*
X0102833Y0180367D01*
X0101363Y0179758D01*
X0100809Y0179204D01*
X0100327Y0179004D01*
X0089596Y0168273D01*
X0089200Y0167317D01*
X0089200Y0062877D01*
X0085290Y0058967D01*
X0081886Y0058967D01*
X0081095Y0059758D01*
X0079625Y0060367D01*
X0072833Y0060367D01*
X0071363Y0059758D01*
X0070238Y0058633D01*
X0069629Y0057163D01*
X0069629Y0055571D01*
X0070238Y0054101D01*
X0071363Y0052976D01*
X0072833Y0052367D01*
X0079625Y0052367D01*
X0081095Y0052976D01*
X0081886Y0053767D01*
X0086884Y0053767D01*
X0087840Y0054163D01*
X0086892Y0053770D02*
X0092658Y0053770D01*
X0090925Y0052172D02*
X0060443Y0052172D01*
X0060307Y0052036D02*
X0062650Y0054379D01*
X0062650Y0057693D01*
X0060307Y0060036D01*
X0056994Y0060036D01*
X0054650Y0057693D01*
X0054650Y0054379D01*
X0056994Y0052036D01*
X0060307Y0052036D01*
X0062041Y0053770D02*
X0070569Y0053770D01*
X0069713Y0055369D02*
X0062650Y0055369D01*
X0062650Y0056967D02*
X0069629Y0056967D01*
X0070210Y0058566D02*
X0061778Y0058566D01*
X0055523Y0058566D02*
X0052343Y0058566D01*
X0053050Y0057859D02*
X0050473Y0060436D01*
X0048650Y0060436D01*
X0046828Y0060436D01*
X0044250Y0057859D01*
X0044250Y0056036D01*
X0044250Y0054214D01*
X0046828Y0051636D01*
X0048650Y0051636D01*
X0048650Y0056036D01*
X0044250Y0056036D01*
X0048650Y0056036D01*
X0048650Y0056036D01*
X0048650Y0056036D01*
X0048650Y0051636D01*
X0050473Y0051636D01*
X0053050Y0054214D01*
X0053050Y0056036D01*
X0048651Y0056036D01*
X0048651Y0056036D01*
X0053050Y0056036D01*
X0053050Y0057859D01*
X0053050Y0056967D02*
X0054650Y0056967D01*
X0054650Y0055369D02*
X0053050Y0055369D01*
X0052607Y0053770D02*
X0055260Y0053770D01*
X0056858Y0052172D02*
X0051008Y0052172D01*
X0048650Y0052172D02*
X0048650Y0052172D01*
X0048650Y0053770D02*
X0048650Y0053770D01*
X0048650Y0055369D02*
X0048650Y0055369D01*
X0048650Y0056036D02*
X0048650Y0060436D01*
X0048650Y0056036D01*
X0048650Y0056036D01*
X0048650Y0056967D02*
X0048650Y0056967D01*
X0048650Y0058566D02*
X0048650Y0058566D01*
X0048650Y0060164D02*
X0048650Y0060164D01*
X0046556Y0060164D02*
X0043000Y0060164D01*
X0043000Y0058566D02*
X0044957Y0058566D01*
X0044250Y0056967D02*
X0043000Y0056967D01*
X0043000Y0055369D02*
X0044250Y0055369D01*
X0044694Y0053770D02*
X0043000Y0053770D01*
X0043000Y0052172D02*
X0046292Y0052172D01*
X0043000Y0050573D02*
X0090619Y0050573D01*
X0091127Y0048975D02*
X0081878Y0048975D01*
X0082220Y0048633D02*
X0081095Y0049758D01*
X0079625Y0050367D01*
X0072833Y0050367D01*
X0071363Y0049758D01*
X0070238Y0048633D01*
X0069629Y0047163D01*
X0069629Y0045571D01*
X0070238Y0044101D01*
X0071363Y0042976D01*
X0072833Y0042367D01*
X0079625Y0042367D01*
X0081095Y0042976D01*
X0082220Y0044101D01*
X0082829Y0045571D01*
X0082829Y0047163D01*
X0082220Y0048633D01*
X0082741Y0047376D02*
X0094113Y0047376D01*
X0094600Y0045778D02*
X0082829Y0045778D01*
X0082252Y0044179D02*
X0094600Y0044179D01*
X0094600Y0042581D02*
X0080141Y0042581D01*
X0072318Y0042581D02*
X0043920Y0042581D01*
X0043904Y0040982D02*
X0094600Y0040982D01*
X0094600Y0039384D02*
X0042882Y0039384D01*
X0040800Y0041800D02*
X0040800Y0066800D01*
X0045800Y0071800D01*
X0061800Y0071800D01*
X0066367Y0076367D01*
X0076229Y0076367D01*
X0081038Y0072952D02*
X0089200Y0072952D01*
X0089200Y0071354D02*
X0064465Y0071354D01*
X0066064Y0072952D02*
X0071420Y0072952D01*
X0072833Y0070367D02*
X0071363Y0069758D01*
X0070238Y0068633D01*
X0069629Y0067163D01*
X0069629Y0065571D01*
X0070238Y0064101D01*
X0071363Y0062976D01*
X0072833Y0062367D01*
X0079625Y0062367D01*
X0081095Y0062976D01*
X0082220Y0064101D01*
X0082829Y0065571D01*
X0082829Y0067163D01*
X0082220Y0068633D01*
X0081095Y0069758D01*
X0079625Y0070367D01*
X0072833Y0070367D01*
X0071361Y0069755D02*
X0062867Y0069755D01*
X0061440Y0074551D02*
X0043000Y0074551D01*
X0043000Y0076149D02*
X0063038Y0076149D01*
X0064637Y0077748D02*
X0056960Y0077748D01*
X0056689Y0077476D02*
X0058124Y0078911D01*
X0058900Y0080786D01*
X0058900Y0082814D01*
X0058124Y0084689D01*
X0056689Y0086124D01*
X0055563Y0086590D01*
X0055911Y0086703D01*
X0056683Y0087096D01*
X0057383Y0087605D01*
X0057995Y0088217D01*
X0058504Y0088917D01*
X0058897Y0089689D01*
X0059165Y0090512D01*
X0059300Y0091367D01*
X0059300Y0091600D01*
X0054000Y0091600D01*
X0054000Y0092000D01*
X0059300Y0092000D01*
X0059300Y0092233D01*
X0059165Y0093088D01*
X0058897Y0093911D01*
X0058504Y0094683D01*
X0057995Y0095383D01*
X0057383Y0095995D01*
X0056683Y0096504D01*
X0055911Y0096897D01*
X0055563Y0097010D01*
X0056689Y0097476D01*
X0058124Y0098911D01*
X0058900Y0100786D01*
X0058900Y0102814D01*
X0058124Y0104689D01*
X0056689Y0106124D01*
X0054814Y0106900D01*
X0052786Y0106900D01*
X0050911Y0106124D01*
X0049476Y0104689D01*
X0048700Y0102814D01*
X0048700Y0100786D01*
X0049476Y0098911D01*
X0050911Y0097476D01*
X0052037Y0097010D01*
X0051689Y0096897D01*
X0050917Y0096504D01*
X0050217Y0095995D01*
X0049605Y0095383D01*
X0049096Y0094683D01*
X0048703Y0093911D01*
X0048435Y0093088D01*
X0048300Y0092233D01*
X0048300Y0092000D01*
X0053600Y0092000D01*
X0053600Y0091600D01*
X0048300Y0091600D01*
X0048300Y0091367D01*
X0048435Y0090512D01*
X0048703Y0089689D01*
X0049096Y0088917D01*
X0049605Y0088217D01*
X0050217Y0087605D01*
X0050917Y0087096D01*
X0051689Y0086703D01*
X0052037Y0086590D01*
X0050911Y0086124D01*
X0049476Y0084689D01*
X0048700Y0082814D01*
X0048700Y0080786D01*
X0049476Y0078911D01*
X0050911Y0077476D01*
X0052786Y0076700D01*
X0054814Y0076700D01*
X0056689Y0077476D01*
X0058304Y0079346D02*
X0070952Y0079346D01*
X0072407Y0082543D02*
X0058900Y0082543D01*
X0058900Y0080945D02*
X0089200Y0080945D01*
X0089200Y0082543D02*
X0080051Y0082543D01*
X0079625Y0082367D02*
X0081095Y0082976D01*
X0082220Y0084101D01*
X0082829Y0085571D01*
X0082829Y0087163D01*
X0082220Y0088633D01*
X0081095Y0089758D01*
X0079625Y0090367D01*
X0072833Y0090367D01*
X0071363Y0089758D01*
X0070238Y0088633D01*
X0069629Y0087163D01*
X0069629Y0085571D01*
X0070238Y0084101D01*
X0071363Y0082976D01*
X0072833Y0082367D01*
X0079625Y0082367D01*
X0082237Y0084142D02*
X0089200Y0084142D01*
X0089200Y0085740D02*
X0082829Y0085740D01*
X0082756Y0087339D02*
X0089200Y0087339D01*
X0089200Y0088937D02*
X0081915Y0088937D01*
X0081095Y0092976D02*
X0079625Y0092367D01*
X0072833Y0092367D01*
X0071363Y0092976D01*
X0070238Y0094101D01*
X0069629Y0095571D01*
X0069629Y0097163D01*
X0070238Y0098633D01*
X0071363Y0099758D01*
X0072833Y0100367D01*
X0079625Y0100367D01*
X0081095Y0099758D01*
X0082220Y0098633D01*
X0082829Y0097163D01*
X0082829Y0095571D01*
X0082220Y0094101D01*
X0081095Y0092976D01*
X0081852Y0093733D02*
X0089200Y0093733D01*
X0089200Y0092134D02*
X0059300Y0092134D01*
X0059168Y0090536D02*
X0089200Y0090536D01*
X0089200Y0095332D02*
X0082730Y0095332D01*
X0082829Y0096930D02*
X0089200Y0096930D01*
X0089200Y0098529D02*
X0082263Y0098529D01*
X0080204Y0100127D02*
X0089200Y0100127D01*
X0089200Y0101726D02*
X0058900Y0101726D01*
X0058689Y0103324D02*
X0070449Y0103324D01*
X0070273Y0103501D02*
X0070763Y0103011D01*
X0071323Y0102604D01*
X0071940Y0102289D01*
X0072599Y0102075D01*
X0073283Y0101967D01*
X0076229Y0101967D01*
X0076229Y0106367D01*
X0076229Y0106367D01*
X0069229Y0106367D01*
X0069229Y0106713D01*
X0069337Y0107397D01*
X0069551Y0108056D01*
X0069866Y0108673D01*
X0070273Y0109233D01*
X0070763Y0109723D01*
X0071323Y0110130D01*
X0071940Y0110445D01*
X0072599Y0110659D01*
X0073283Y0110767D01*
X0076229Y0110767D01*
X0076229Y0106367D01*
X0076229Y0106367D01*
X0069229Y0106367D01*
X0069229Y0106021D01*
X0069337Y0105337D01*
X0069551Y0104678D01*
X0069866Y0104061D01*
X0070273Y0103501D01*
X0069472Y0104923D02*
X0057890Y0104923D01*
X0055729Y0106521D02*
X0069229Y0106521D01*
X0069584Y0108120D02*
X0028592Y0108120D01*
X0026993Y0109718D02*
X0070758Y0109718D01*
X0071510Y0112915D02*
X0023796Y0112915D01*
X0025395Y0111317D02*
X0089200Y0111317D01*
X0089200Y0112915D02*
X0080948Y0112915D01*
X0081095Y0112976D02*
X0082220Y0114101D01*
X0082829Y0115571D01*
X0082829Y0117163D01*
X0082220Y0118633D01*
X0081095Y0119758D01*
X0079625Y0120367D01*
X0072833Y0120367D01*
X0071363Y0119758D01*
X0070238Y0118633D01*
X0069629Y0117163D01*
X0069629Y0115571D01*
X0070238Y0114101D01*
X0071363Y0112976D01*
X0072833Y0112367D01*
X0079625Y0112367D01*
X0081095Y0112976D01*
X0082391Y0114514D02*
X0089200Y0114514D01*
X0089200Y0116112D02*
X0082829Y0116112D01*
X0082602Y0117711D02*
X0089200Y0117711D01*
X0089200Y0119309D02*
X0081544Y0119309D01*
X0079961Y0122506D02*
X0089200Y0122506D01*
X0089200Y0120908D02*
X0019905Y0120908D01*
X0019719Y0122506D02*
X0072497Y0122506D01*
X0072833Y0122367D02*
X0079625Y0122367D01*
X0081095Y0122976D01*
X0082220Y0124101D01*
X0082829Y0125571D01*
X0082829Y0127163D01*
X0082220Y0128633D01*
X0081095Y0129758D01*
X0079625Y0130367D01*
X0072833Y0130367D01*
X0071363Y0129758D01*
X0070238Y0128633D01*
X0069629Y0127163D01*
X0069629Y0125571D01*
X0070238Y0124101D01*
X0071363Y0122976D01*
X0072833Y0122367D01*
X0070237Y0124105D02*
X0021204Y0124105D01*
X0021866Y0125703D02*
X0069629Y0125703D01*
X0069687Y0127302D02*
X0021900Y0127302D01*
X0021450Y0128900D02*
X0070506Y0128900D01*
X0070643Y0133696D02*
X0020908Y0133696D01*
X0021697Y0135294D02*
X0060194Y0135294D01*
X0058596Y0136893D02*
X0021900Y0136893D01*
X0021620Y0138491D02*
X0056997Y0138491D01*
X0055399Y0140090D02*
X0020723Y0140090D01*
X0018325Y0141688D02*
X0053800Y0141688D01*
X0052202Y0143287D02*
X0020499Y0143287D01*
X0021527Y0144885D02*
X0050603Y0144885D01*
X0049005Y0146484D02*
X0021900Y0146484D01*
X0021789Y0148082D02*
X0047406Y0148082D01*
X0045808Y0149681D02*
X0021127Y0149681D01*
X0019313Y0151279D02*
X0044209Y0151279D01*
X0042611Y0152878D02*
X0020090Y0152878D01*
X0021358Y0154476D02*
X0041012Y0154476D01*
X0039414Y0156075D02*
X0021900Y0156075D01*
X0021900Y0157673D02*
X0037815Y0157673D01*
X0036217Y0159272D02*
X0021296Y0159272D01*
X0019942Y0160870D02*
X0034618Y0160870D01*
X0033020Y0162469D02*
X0013600Y0162469D01*
X0013600Y0160870D02*
X0013658Y0160870D01*
X0013600Y0164068D02*
X0031421Y0164068D01*
X0029823Y0165666D02*
X0013600Y0165666D01*
X0013600Y0167265D02*
X0028224Y0167265D01*
X0026626Y0168863D02*
X0013600Y0168863D01*
X0013600Y0170462D02*
X0025600Y0170462D01*
X0025600Y0172060D02*
X0013600Y0172060D01*
X0013600Y0173659D02*
X0025600Y0173659D01*
X0025600Y0175257D02*
X0013600Y0175257D01*
X0013600Y0176856D02*
X0025600Y0176856D01*
X0025600Y0178454D02*
X0013600Y0178454D01*
X0013600Y0180053D02*
X0025600Y0180053D01*
X0025600Y0181651D02*
X0013600Y0181651D01*
X0013600Y0183250D02*
X0025600Y0183250D01*
X0025600Y0184848D02*
X0013600Y0184848D01*
X0013600Y0186447D02*
X0025600Y0186447D01*
X0025600Y0188045D02*
X0013600Y0188045D01*
X0013600Y0189644D02*
X0025600Y0189644D01*
X0025600Y0191242D02*
X0013600Y0191242D01*
X0013600Y0192841D02*
X0025600Y0192841D01*
X0025600Y0194439D02*
X0013600Y0194439D01*
X0013600Y0196038D02*
X0025600Y0196038D01*
X0025600Y0197636D02*
X0013600Y0197636D01*
X0013600Y0199235D02*
X0025600Y0199235D01*
X0025600Y0200833D02*
X0013600Y0200833D01*
X0013600Y0202432D02*
X0025600Y0202432D01*
X0025600Y0204030D02*
X0013600Y0204030D01*
X0013600Y0205629D02*
X0025600Y0205629D01*
X0025600Y0207227D02*
X0019380Y0207227D01*
X0017220Y0207227D02*
X0013600Y0207227D01*
X0013600Y0208826D02*
X0014562Y0208826D01*
X0022038Y0208826D02*
X0024562Y0208826D01*
X0023557Y0210424D02*
X0023043Y0210424D01*
X0027800Y0211800D02*
X0028300Y0212300D01*
X0027800Y0211800D02*
X0027800Y0170800D01*
X0062233Y0136367D01*
X0076229Y0136367D01*
X0080294Y0140090D02*
X0089200Y0140090D01*
X0089200Y0141688D02*
X0060023Y0141688D01*
X0061621Y0140090D02*
X0072165Y0140090D01*
X0071052Y0143287D02*
X0058424Y0143287D01*
X0056826Y0144885D02*
X0061603Y0144885D01*
X0063233Y0146367D02*
X0038800Y0170800D01*
X0038800Y0211800D01*
X0038300Y0212300D01*
X0042038Y0208826D02*
X0044026Y0208826D01*
X0043126Y0210424D02*
X0043043Y0210424D01*
X0041000Y0207227D02*
X0046141Y0207227D01*
X0048100Y0207227D02*
X0048500Y0207227D01*
X0048500Y0208826D02*
X0048100Y0208826D01*
X0048100Y0210424D02*
X0048500Y0210424D01*
X0048500Y0212023D02*
X0048100Y0212023D01*
X0050459Y0207227D02*
X0057220Y0207227D01*
X0059380Y0207227D02*
X0066100Y0207227D01*
X0066100Y0205629D02*
X0041000Y0205629D01*
X0041000Y0204030D02*
X0066100Y0204030D01*
X0066100Y0202432D02*
X0041000Y0202432D01*
X0041000Y0200833D02*
X0066100Y0200833D01*
X0066100Y0199235D02*
X0041000Y0199235D01*
X0041000Y0197636D02*
X0066100Y0197636D01*
X0066100Y0196038D02*
X0041000Y0196038D01*
X0041000Y0194439D02*
X0066100Y0194439D01*
X0067648Y0192841D02*
X0041000Y0192841D01*
X0041000Y0191242D02*
X0067800Y0191242D01*
X0068299Y0189644D02*
X0041000Y0189644D01*
X0041000Y0188045D02*
X0069898Y0188045D01*
X0073702Y0188045D02*
X0109898Y0188045D01*
X0110143Y0187800D02*
X0113457Y0187800D01*
X0115800Y0190143D01*
X0115800Y0193457D01*
X0113457Y0195800D01*
X0110143Y0195800D01*
X0107800Y0193457D01*
X0107800Y0190143D01*
X0110143Y0187800D01*
X0108299Y0189644D02*
X0075301Y0189644D01*
X0075800Y0191242D02*
X0107800Y0191242D01*
X0107800Y0192841D02*
X0075800Y0192841D01*
X0074818Y0194439D02*
X0108782Y0194439D01*
X0114818Y0194439D02*
X0134217Y0194439D01*
X0134977Y0195200D02*
X0132400Y0192623D01*
X0132400Y0190800D01*
X0136800Y0190800D01*
X0136800Y0190800D01*
X0136800Y0195200D01*
X0138623Y0195200D01*
X0141200Y0192623D01*
X0141200Y0190800D01*
X0136800Y0190800D01*
X0136800Y0190800D01*
X0136800Y0190800D01*
X0136800Y0195200D01*
X0134977Y0195200D01*
X0136800Y0194439D02*
X0136800Y0194439D01*
X0136800Y0192841D02*
X0136800Y0192841D01*
X0136800Y0191242D02*
X0136800Y0191242D01*
X0136800Y0190800D02*
X0132400Y0190800D01*
X0132400Y0188977D01*
X0134977Y0186400D01*
X0136800Y0186400D01*
X0138623Y0186400D01*
X0141200Y0188977D01*
X0141200Y0190800D01*
X0136800Y0190800D01*
X0136800Y0186400D01*
X0136800Y0190800D01*
X0136800Y0190800D01*
X0136800Y0189644D02*
X0136800Y0189644D01*
X0136800Y0188045D02*
X0136800Y0188045D01*
X0136800Y0186447D02*
X0136800Y0186447D01*
X0138669Y0186447D02*
X0140300Y0186447D01*
X0140300Y0187457D02*
X0140300Y0184143D01*
X0142643Y0181800D01*
X0145957Y0181800D01*
X0148300Y0184143D01*
X0148300Y0187457D01*
X0146900Y0188857D01*
X0146900Y0203538D01*
X0146504Y0204493D01*
X0146302Y0204695D01*
X0147315Y0204695D01*
X0148776Y0205300D01*
X0149894Y0206419D01*
X0150461Y0207788D01*
X0151029Y0206419D01*
X0152147Y0205300D01*
X0153608Y0204695D01*
X0155189Y0204695D01*
X0156650Y0205300D01*
X0157768Y0206419D01*
X0158122Y0207274D01*
X0158569Y0206196D01*
X0159798Y0204967D01*
X0161403Y0204302D01*
X0163141Y0204302D01*
X0164747Y0204967D01*
X0165976Y0206196D01*
X0166641Y0207801D01*
X0166641Y0209539D01*
X0165976Y0211145D01*
X0164747Y0212374D01*
X0163141Y0213039D01*
X0161403Y0213039D01*
X0159798Y0212374D01*
X0158569Y0211145D01*
X0158122Y0210066D01*
X0157768Y0210922D01*
X0156650Y0212040D01*
X0155189Y0212645D01*
X0153608Y0212645D01*
X0152147Y0212040D01*
X0151029Y0210922D01*
X0150461Y0209552D01*
X0149894Y0210922D01*
X0148776Y0212040D01*
X0147315Y0212645D01*
X0145734Y0212645D01*
X0144273Y0212040D01*
X0143155Y0210922D01*
X0142587Y0209552D01*
X0142020Y0210922D01*
X0140902Y0212040D01*
X0139441Y0212645D01*
X0137860Y0212645D01*
X0136399Y0212040D01*
X0135281Y0210922D01*
X0134926Y0210066D01*
X0134480Y0211145D01*
X0133251Y0212374D01*
X0131645Y0213039D01*
X0129907Y0213039D01*
X0128302Y0212374D01*
X0127073Y0211145D01*
X0126408Y0209539D01*
X0126408Y0207801D01*
X0127073Y0206196D01*
X0128302Y0204967D01*
X0129907Y0204302D01*
X0131645Y0204302D01*
X0133251Y0204967D01*
X0134480Y0206196D01*
X0134926Y0207274D01*
X0135281Y0206419D01*
X0136399Y0205300D01*
X0137860Y0204695D01*
X0138948Y0204695D01*
X0141700Y0201944D01*
X0141700Y0188857D01*
X0140300Y0187457D01*
X0140268Y0188045D02*
X0140888Y0188045D01*
X0141200Y0189644D02*
X0141700Y0189644D01*
X0141700Y0191242D02*
X0141200Y0191242D01*
X0140982Y0192841D02*
X0141700Y0192841D01*
X0141700Y0194439D02*
X0139383Y0194439D01*
X0141700Y0196038D02*
X0070674Y0196038D01*
X0070500Y0197636D02*
X0141700Y0197636D01*
X0141700Y0199235D02*
X0070500Y0199235D01*
X0070500Y0200833D02*
X0141700Y0200833D01*
X0141212Y0202432D02*
X0070500Y0202432D01*
X0070500Y0204030D02*
X0139613Y0204030D01*
X0136070Y0205629D02*
X0133913Y0205629D01*
X0134907Y0207227D02*
X0134946Y0207227D01*
X0135075Y0210424D02*
X0134778Y0210424D01*
X0133602Y0212023D02*
X0136382Y0212023D01*
X0140919Y0212023D02*
X0144256Y0212023D01*
X0142949Y0210424D02*
X0142226Y0210424D01*
X0148793Y0212023D02*
X0152130Y0212023D01*
X0150823Y0210424D02*
X0150100Y0210424D01*
X0150229Y0207227D02*
X0150694Y0207227D01*
X0151818Y0205629D02*
X0149104Y0205629D01*
X0146696Y0204030D02*
X0177172Y0204030D01*
X0176772Y0202432D02*
X0146900Y0202432D01*
X0146900Y0200833D02*
X0176989Y0200833D01*
X0177918Y0199235D02*
X0146900Y0199235D01*
X0146900Y0197636D02*
X0175525Y0197636D01*
X0176894Y0195894D02*
X0175800Y0194800D01*
X0175800Y0123800D01*
X0173800Y0121800D01*
X0171606Y0124105D02*
X0169400Y0124105D01*
X0169400Y0125703D02*
X0173600Y0125703D01*
X0173600Y0127302D02*
X0169400Y0127302D01*
X0169400Y0128900D02*
X0173600Y0128900D01*
X0173600Y0130499D02*
X0169400Y0130499D01*
X0169400Y0132097D02*
X0173600Y0132097D01*
X0173600Y0133696D02*
X0169400Y0133696D01*
X0169400Y0135294D02*
X0173600Y0135294D01*
X0173600Y0136893D02*
X0169400Y0136893D01*
X0169400Y0138491D02*
X0173600Y0138491D01*
X0173600Y0140090D02*
X0169400Y0140090D01*
X0169400Y0141688D02*
X0173600Y0141688D01*
X0173600Y0143287D02*
X0169400Y0143287D01*
X0169400Y0144885D02*
X0173600Y0144885D01*
X0173600Y0146484D02*
X0169400Y0146484D01*
X0169400Y0148082D02*
X0173600Y0148082D01*
X0173600Y0149681D02*
X0169400Y0149681D01*
X0169400Y0151279D02*
X0173600Y0151279D01*
X0173600Y0152878D02*
X0169400Y0152878D01*
X0169400Y0154476D02*
X0173600Y0154476D01*
X0173600Y0156075D02*
X0169400Y0156075D01*
X0169400Y0157673D02*
X0173600Y0157673D01*
X0173600Y0159272D02*
X0169400Y0159272D01*
X0169400Y0160870D02*
X0173600Y0160870D01*
X0173600Y0162469D02*
X0169400Y0162469D01*
X0169400Y0164068D02*
X0173600Y0164068D01*
X0173600Y0165666D02*
X0169400Y0165666D01*
X0169400Y0167265D02*
X0173600Y0167265D01*
X0173600Y0168863D02*
X0169400Y0168863D01*
X0169400Y0170462D02*
X0173600Y0170462D01*
X0173600Y0172060D02*
X0169400Y0172060D01*
X0169400Y0173659D02*
X0173600Y0173659D01*
X0173600Y0175257D02*
X0169400Y0175257D01*
X0169400Y0176856D02*
X0173600Y0176856D01*
X0173600Y0178454D02*
X0169400Y0178454D01*
X0169519Y0180053D02*
X0173600Y0180053D01*
X0173600Y0181651D02*
X0169981Y0181651D01*
X0169643Y0183250D02*
X0173600Y0183250D01*
X0173600Y0184848D02*
X0167754Y0184848D01*
X0165846Y0184848D02*
X0148300Y0184848D01*
X0148300Y0186447D02*
X0173600Y0186447D01*
X0173600Y0188045D02*
X0147712Y0188045D01*
X0146900Y0189644D02*
X0173600Y0189644D01*
X0173600Y0191242D02*
X0146900Y0191242D01*
X0146900Y0192841D02*
X0173600Y0192841D01*
X0173600Y0194439D02*
X0146900Y0194439D01*
X0146900Y0196038D02*
X0173926Y0196038D01*
X0176894Y0195894D02*
X0181146Y0195894D01*
X0185800Y0192674D02*
X0185871Y0192745D01*
X0185800Y0192674D02*
X0185800Y0131800D01*
X0188704Y0130499D02*
X0189600Y0130499D01*
X0189600Y0132097D02*
X0188981Y0132097D01*
X0188403Y0133696D02*
X0189600Y0133696D01*
X0189600Y0135294D02*
X0188000Y0135294D01*
X0188000Y0136893D02*
X0189600Y0136893D01*
X0189600Y0138491D02*
X0188000Y0138491D01*
X0188000Y0140090D02*
X0189600Y0140090D01*
X0189600Y0141688D02*
X0188000Y0141688D01*
X0188000Y0143287D02*
X0189600Y0143287D01*
X0189600Y0144885D02*
X0188000Y0144885D01*
X0188000Y0146484D02*
X0189600Y0146484D01*
X0189600Y0148082D02*
X0188000Y0148082D01*
X0188000Y0149681D02*
X0189600Y0149681D01*
X0189600Y0151279D02*
X0188000Y0151279D01*
X0188000Y0152878D02*
X0189600Y0152878D01*
X0189600Y0154476D02*
X0188000Y0154476D01*
X0188000Y0156075D02*
X0189600Y0156075D01*
X0189600Y0157673D02*
X0188000Y0157673D01*
X0188000Y0159272D02*
X0189600Y0159272D01*
X0189600Y0160870D02*
X0188000Y0160870D01*
X0188000Y0162469D02*
X0189600Y0162469D01*
X0189600Y0164068D02*
X0188000Y0164068D01*
X0188000Y0165666D02*
X0189600Y0165666D01*
X0189600Y0167265D02*
X0188000Y0167265D01*
X0188000Y0168863D02*
X0189600Y0168863D01*
X0189600Y0170462D02*
X0188000Y0170462D01*
X0188000Y0172060D02*
X0189600Y0172060D01*
X0189600Y0173659D02*
X0188000Y0173659D01*
X0188000Y0175257D02*
X0189600Y0175257D01*
X0189600Y0176856D02*
X0188000Y0176856D01*
X0188000Y0178454D02*
X0189600Y0178454D01*
X0189600Y0180053D02*
X0188000Y0180053D01*
X0188000Y0181651D02*
X0189600Y0181651D01*
X0189600Y0183250D02*
X0188000Y0183250D01*
X0188000Y0184848D02*
X0189600Y0184848D01*
X0189600Y0186447D02*
X0188000Y0186447D01*
X0188000Y0188045D02*
X0189600Y0188045D01*
X0189600Y0189644D02*
X0188391Y0189644D01*
X0189551Y0191242D02*
X0189600Y0191242D01*
X0194000Y0191242D02*
X0206850Y0191242D01*
X0206850Y0189644D02*
X0194000Y0189644D01*
X0194000Y0188045D02*
X0198649Y0188045D01*
X0196233Y0186447D02*
X0194000Y0186447D01*
X0194000Y0184848D02*
X0195014Y0184848D01*
X0194352Y0183250D02*
X0194000Y0183250D01*
X0194000Y0181651D02*
X0194215Y0181651D01*
X0194247Y0180053D02*
X0194000Y0180053D01*
X0194000Y0178454D02*
X0194909Y0178454D01*
X0194000Y0176856D02*
X0195980Y0176856D01*
X0194000Y0175257D02*
X0198037Y0175257D01*
X0194000Y0173659D02*
X0206850Y0173659D01*
X0206850Y0175257D02*
X0204413Y0175257D01*
X0206470Y0176856D02*
X0206850Y0176856D01*
X0206850Y0172060D02*
X0194000Y0172060D01*
X0194000Y0170462D02*
X0206850Y0170462D01*
X0206850Y0168863D02*
X0194000Y0168863D01*
X0194000Y0167265D02*
X0206850Y0167265D01*
X0206850Y0165666D02*
X0194000Y0165666D01*
X0194000Y0164068D02*
X0206850Y0164068D01*
X0206850Y0162469D02*
X0194000Y0162469D01*
X0194000Y0160870D02*
X0201158Y0160870D01*
X0199804Y0159272D02*
X0194000Y0159272D01*
X0194000Y0157673D02*
X0199200Y0157673D01*
X0199200Y0156075D02*
X0194000Y0156075D01*
X0194000Y0154476D02*
X0199742Y0154476D01*
X0201010Y0152878D02*
X0194000Y0152878D01*
X0194000Y0151279D02*
X0201787Y0151279D01*
X0199973Y0149681D02*
X0194000Y0149681D01*
X0194000Y0148082D02*
X0199311Y0148082D01*
X0199200Y0146484D02*
X0194000Y0146484D01*
X0194000Y0144885D02*
X0199573Y0144885D01*
X0200601Y0143287D02*
X0194000Y0143287D01*
X0194000Y0141688D02*
X0202775Y0141688D01*
X0200377Y0140090D02*
X0194000Y0140090D01*
X0194000Y0138491D02*
X0199480Y0138491D01*
X0199200Y0136893D02*
X0194000Y0136893D01*
X0194000Y0135294D02*
X0199403Y0135294D01*
X0200192Y0133696D02*
X0194000Y0133696D01*
X0194000Y0132097D02*
X0202326Y0132097D01*
X0200786Y0130499D02*
X0194000Y0130499D01*
X0194000Y0128900D02*
X0199650Y0128900D01*
X0199200Y0127302D02*
X0194000Y0127302D01*
X0194000Y0125703D02*
X0199234Y0125703D01*
X0199896Y0124105D02*
X0194000Y0124105D01*
X0194000Y0122506D02*
X0201381Y0122506D01*
X0201195Y0120908D02*
X0194000Y0120908D01*
X0194000Y0119309D02*
X0199819Y0119309D01*
X0199200Y0117711D02*
X0194000Y0117711D01*
X0194000Y0116112D02*
X0199200Y0116112D01*
X0199727Y0114514D02*
X0194000Y0114514D01*
X0194000Y0112915D02*
X0200972Y0112915D01*
X0201877Y0111317D02*
X0194000Y0111317D01*
X0194000Y0109718D02*
X0200006Y0109718D01*
X0199326Y0108120D02*
X0194000Y0108120D01*
X0194000Y0106521D02*
X0199200Y0106521D01*
X0199557Y0104923D02*
X0194000Y0104923D01*
X0194000Y0103324D02*
X0200563Y0103324D01*
X0202864Y0101726D02*
X0194000Y0101726D01*
X0194000Y0100127D02*
X0200415Y0100127D01*
X0199496Y0098529D02*
X0194000Y0098529D01*
X0194000Y0096930D02*
X0199200Y0096930D01*
X0199388Y0095332D02*
X0194000Y0095332D01*
X0194000Y0093733D02*
X0200154Y0093733D01*
X0202237Y0092134D02*
X0194000Y0092134D01*
X0194000Y0090536D02*
X0200258Y0090536D01*
X0199216Y0088937D02*
X0194000Y0088937D01*
X0194000Y0087339D02*
X0198817Y0087339D01*
X0198800Y0086600D02*
X0198800Y0086367D01*
X0198935Y0085512D01*
X0199203Y0084689D01*
X0199596Y0083917D01*
X0200105Y0083217D01*
X0200717Y0082605D01*
X0201417Y0082096D01*
X0202189Y0081703D01*
X0203012Y0081435D01*
X0203867Y0081300D01*
X0204100Y0081300D01*
X0204100Y0086600D01*
X0198800Y0086600D01*
X0198899Y0085740D02*
X0194000Y0085740D01*
X0194000Y0084142D02*
X0199482Y0084142D01*
X0200802Y0082543D02*
X0194000Y0082543D01*
X0194000Y0080945D02*
X0206850Y0080945D01*
X0206850Y0079346D02*
X0194000Y0079346D01*
X0194000Y0077748D02*
X0206850Y0077748D01*
X0206850Y0076149D02*
X0194000Y0076149D01*
X0194000Y0074551D02*
X0206850Y0074551D01*
X0206850Y0072952D02*
X0194000Y0072952D01*
X0194000Y0071354D02*
X0206850Y0071354D01*
X0206850Y0069755D02*
X0194000Y0069755D01*
X0194000Y0068157D02*
X0206850Y0068157D01*
X0206850Y0066558D02*
X0194000Y0066558D01*
X0194000Y0064960D02*
X0206850Y0064960D01*
X0206850Y0063361D02*
X0194000Y0063361D01*
X0194000Y0061763D02*
X0206850Y0061763D01*
X0206850Y0060164D02*
X0194000Y0060164D01*
X0194000Y0058566D02*
X0206850Y0058566D01*
X0206850Y0056967D02*
X0194000Y0056967D01*
X0194000Y0055369D02*
X0206850Y0055369D01*
X0206850Y0053770D02*
X0194000Y0053770D01*
X0194000Y0052172D02*
X0206850Y0052172D01*
X0206850Y0050573D02*
X0193684Y0050573D01*
X0191800Y0051800D02*
X0186800Y0046800D01*
X0184476Y0048975D02*
X0111878Y0048975D01*
X0112220Y0048633D02*
X0111095Y0049758D01*
X0109625Y0050367D01*
X0102833Y0050367D01*
X0101363Y0049758D01*
X0100238Y0048633D01*
X0099629Y0047163D01*
X0099629Y0045571D01*
X0100238Y0044101D01*
X0101363Y0042976D01*
X0102833Y0042367D01*
X0109625Y0042367D01*
X0111095Y0042976D01*
X0112220Y0044101D01*
X0112829Y0045571D01*
X0112829Y0047163D01*
X0112220Y0048633D01*
X0112741Y0047376D02*
X0183619Y0047376D01*
X0183780Y0045778D02*
X0112829Y0045778D01*
X0112252Y0044179D02*
X0184922Y0044179D01*
X0188678Y0044179D02*
X0206850Y0044179D01*
X0206850Y0042581D02*
X0178242Y0042581D01*
X0177623Y0043200D02*
X0175800Y0043200D01*
X0175800Y0038800D01*
X0180200Y0038800D01*
X0180200Y0040623D01*
X0177623Y0043200D01*
X0175800Y0043200D02*
X0173977Y0043200D01*
X0171400Y0040623D01*
X0171400Y0038800D01*
X0175800Y0038800D01*
X0175800Y0038800D01*
X0175800Y0038800D01*
X0180200Y0038800D01*
X0180200Y0036977D01*
X0177623Y0034400D01*
X0175800Y0034400D01*
X0175800Y0038800D01*
X0175800Y0038800D01*
X0175800Y0038800D01*
X0175800Y0043200D01*
X0175800Y0042581D02*
X0175800Y0042581D01*
X0175800Y0040982D02*
X0175800Y0040982D01*
X0175800Y0039384D02*
X0175800Y0039384D01*
X0175800Y0038800D02*
X0171400Y0038800D01*
X0171400Y0036977D01*
X0173977Y0034400D01*
X0175800Y0034400D01*
X0175800Y0038800D01*
X0175800Y0037785D02*
X0175800Y0037785D01*
X0175800Y0036187D02*
X0175800Y0036187D01*
X0175800Y0034588D02*
X0175800Y0034588D01*
X0177811Y0034588D02*
X0206850Y0034588D01*
X0206850Y0032990D02*
X0099000Y0032990D01*
X0099000Y0034588D02*
X0173789Y0034588D01*
X0172191Y0036187D02*
X0138843Y0036187D01*
X0139800Y0037143D02*
X0137457Y0034800D01*
X0134143Y0034800D01*
X0131800Y0037143D01*
X0131800Y0040457D01*
X0134143Y0042800D01*
X0137457Y0042800D01*
X0139800Y0040457D01*
X0139800Y0037143D01*
X0139800Y0037785D02*
X0171400Y0037785D01*
X0171400Y0039384D02*
X0139800Y0039384D01*
X0139275Y0040982D02*
X0171760Y0040982D01*
X0173358Y0042581D02*
X0137676Y0042581D01*
X0133924Y0042581D02*
X0110141Y0042581D01*
X0102318Y0042581D02*
X0099000Y0042581D01*
X0099000Y0044179D02*
X0100206Y0044179D01*
X0099629Y0045778D02*
X0099000Y0045778D01*
X0099000Y0047376D02*
X0099718Y0047376D01*
X0100580Y0048975D02*
X0098737Y0048975D01*
X0097138Y0050573D02*
X0187462Y0050573D01*
X0190487Y0047376D02*
X0206850Y0047376D01*
X0206850Y0045778D02*
X0189820Y0045778D01*
X0192086Y0048975D02*
X0206850Y0048975D01*
X0206850Y0040982D02*
X0179840Y0040982D01*
X0180200Y0039384D02*
X0206850Y0039384D01*
X0206850Y0037785D02*
X0180200Y0037785D01*
X0179409Y0036187D02*
X0206850Y0036187D01*
X0206850Y0031391D02*
X0177931Y0031391D01*
X0175800Y0031391D02*
X0175800Y0031391D01*
X0175800Y0029793D02*
X0175800Y0029793D01*
X0175800Y0028194D02*
X0175800Y0028194D01*
X0173669Y0031391D02*
X0099000Y0031391D01*
X0099464Y0029793D02*
X0104136Y0029793D01*
X0102800Y0028194D02*
X0100800Y0028194D01*
X0100800Y0026596D02*
X0102800Y0026596D01*
X0102946Y0024997D02*
X0100654Y0024997D01*
X0096800Y0026800D02*
X0096800Y0047800D01*
X0093800Y0050800D01*
X0090644Y0056967D02*
X0099629Y0056967D01*
X0100210Y0058566D02*
X0092243Y0058566D01*
X0093841Y0060164D02*
X0102344Y0060164D01*
X0100978Y0063361D02*
X0094400Y0063361D01*
X0094400Y0061763D02*
X0189600Y0061763D01*
X0191800Y0051800D02*
X0191800Y0196800D01*
X0189556Y0199044D01*
X0185871Y0199044D01*
X0188079Y0202432D02*
X0206850Y0202432D01*
X0206850Y0204030D02*
X0204493Y0204030D01*
X0206503Y0205629D02*
X0206850Y0205629D01*
X0206850Y0200833D02*
X0190878Y0200833D01*
X0192477Y0199235D02*
X0206850Y0199235D01*
X0206850Y0197636D02*
X0194000Y0197636D01*
X0194000Y0196038D02*
X0206850Y0196038D01*
X0206850Y0194439D02*
X0194000Y0194439D01*
X0194000Y0192841D02*
X0206850Y0192841D01*
X0206850Y0188045D02*
X0203801Y0188045D01*
X0206217Y0186447D02*
X0206850Y0186447D01*
X0197957Y0204030D02*
X0185121Y0204030D01*
X0183861Y0205629D02*
X0195947Y0205629D01*
X0194895Y0207227D02*
X0166403Y0207227D01*
X0166641Y0208826D02*
X0194233Y0208826D01*
X0194215Y0210424D02*
X0166274Y0210424D01*
X0165098Y0212023D02*
X0194366Y0212023D01*
X0195028Y0213621D02*
X0117991Y0213621D01*
X0118300Y0212023D02*
X0127951Y0212023D01*
X0126775Y0210424D02*
X0118136Y0210424D01*
X0118165Y0210512D02*
X0118300Y0211367D01*
X0118300Y0211600D01*
X0113000Y0211600D01*
X0113000Y0206300D01*
X0113233Y0206300D01*
X0114088Y0206435D01*
X0114911Y0206703D01*
X0115683Y0207096D01*
X0116383Y0207605D01*
X0116995Y0208217D01*
X0117504Y0208917D01*
X0117897Y0209689D01*
X0118165Y0210512D01*
X0117437Y0208826D02*
X0126408Y0208826D01*
X0126646Y0207227D02*
X0115863Y0207227D01*
X0113000Y0207227D02*
X0112600Y0207227D01*
X0112600Y0206300D02*
X0112600Y0211600D01*
X0107300Y0211600D01*
X0107300Y0211367D01*
X0107435Y0210512D01*
X0107703Y0209689D01*
X0108096Y0208917D01*
X0108605Y0208217D01*
X0109217Y0207605D01*
X0109917Y0207096D01*
X0110689Y0206703D01*
X0111512Y0206435D01*
X0112367Y0206300D01*
X0112600Y0206300D01*
X0112600Y0208826D02*
X0113000Y0208826D01*
X0113000Y0210424D02*
X0112600Y0210424D01*
X0109737Y0207227D02*
X0095087Y0207227D01*
X0097038Y0208826D02*
X0108162Y0208826D01*
X0107464Y0210424D02*
X0097750Y0210424D01*
X0097900Y0212023D02*
X0107300Y0212023D01*
X0107609Y0213621D02*
X0097566Y0213621D01*
X0096593Y0215220D02*
X0108486Y0215220D01*
X0110534Y0216818D02*
X0094011Y0216818D01*
X0091589Y0216818D02*
X0070719Y0216818D01*
X0072593Y0215220D02*
X0089007Y0215220D01*
X0088034Y0213621D02*
X0073273Y0213621D01*
X0073400Y0212023D02*
X0087700Y0212023D01*
X0087850Y0210424D02*
X0073043Y0210424D01*
X0072038Y0208826D02*
X0088562Y0208826D01*
X0090512Y0207227D02*
X0070500Y0207227D01*
X0070500Y0205629D02*
X0127640Y0205629D01*
X0117114Y0215220D02*
X0196267Y0215220D01*
X0198729Y0216818D02*
X0115066Y0216818D01*
X0115800Y0192841D02*
X0132618Y0192841D01*
X0132400Y0191242D02*
X0115800Y0191242D01*
X0115301Y0189644D02*
X0120567Y0189644D01*
X0121273Y0190350D02*
X0118695Y0187772D01*
X0118695Y0185950D01*
X0123095Y0185950D01*
X0123095Y0190350D01*
X0121273Y0190350D01*
X0123095Y0190350D02*
X0123095Y0185950D01*
X0123095Y0185950D01*
X0123095Y0185950D01*
X0118695Y0185950D01*
X0118695Y0184127D01*
X0121273Y0181550D01*
X0123095Y0181550D01*
X0123095Y0185949D01*
X0123095Y0185949D01*
X0123095Y0181550D01*
X0124918Y0181550D01*
X0127495Y0184127D01*
X0127495Y0185950D01*
X0127495Y0187772D01*
X0124918Y0190350D01*
X0123095Y0190350D01*
X0123095Y0189644D02*
X0123095Y0189644D01*
X0123095Y0188045D02*
X0123095Y0188045D01*
X0123095Y0186447D02*
X0123095Y0186447D01*
X0123095Y0185950D02*
X0127495Y0185950D01*
X0123095Y0185950D01*
X0123095Y0185950D01*
X0123095Y0184848D02*
X0123095Y0184848D01*
X0123095Y0183250D02*
X0123095Y0183250D01*
X0123095Y0181651D02*
X0123095Y0181651D01*
X0121171Y0181651D02*
X0041000Y0181651D01*
X0041000Y0180053D02*
X0072075Y0180053D01*
X0071363Y0179758D02*
X0072833Y0180367D01*
X0079625Y0180367D01*
X0081095Y0179758D01*
X0082220Y0178633D01*
X0082829Y0177163D01*
X0082829Y0175571D01*
X0082220Y0174101D01*
X0081095Y0172976D01*
X0079625Y0172367D01*
X0072833Y0172367D01*
X0071363Y0172976D01*
X0070238Y0174101D01*
X0069629Y0175571D01*
X0069629Y0177163D01*
X0070238Y0178633D01*
X0071363Y0179758D01*
X0070164Y0178454D02*
X0041000Y0178454D01*
X0041000Y0176856D02*
X0069629Y0176856D01*
X0069759Y0175257D02*
X0041000Y0175257D01*
X0041000Y0173659D02*
X0070681Y0173659D01*
X0072833Y0170367D02*
X0071363Y0169758D01*
X0070238Y0168633D01*
X0069629Y0167163D01*
X0069629Y0165571D01*
X0070238Y0164101D01*
X0071363Y0162976D01*
X0072833Y0162367D01*
X0079625Y0162367D01*
X0081095Y0162976D01*
X0082220Y0164101D01*
X0082829Y0165571D01*
X0082829Y0167163D01*
X0082220Y0168633D01*
X0081095Y0169758D01*
X0079625Y0170367D01*
X0072833Y0170367D01*
X0070468Y0168863D02*
X0043848Y0168863D01*
X0042250Y0170462D02*
X0091785Y0170462D01*
X0093383Y0172060D02*
X0041000Y0172060D01*
X0036600Y0172060D02*
X0030000Y0172060D01*
X0030000Y0173659D02*
X0036600Y0173659D01*
X0036600Y0175257D02*
X0030000Y0175257D01*
X0030000Y0176856D02*
X0036600Y0176856D01*
X0036600Y0178454D02*
X0030000Y0178454D01*
X0030000Y0180053D02*
X0036600Y0180053D01*
X0036600Y0181651D02*
X0030000Y0181651D01*
X0030000Y0183250D02*
X0036600Y0183250D01*
X0036600Y0184848D02*
X0030000Y0184848D01*
X0030000Y0186447D02*
X0036600Y0186447D01*
X0036600Y0188045D02*
X0030000Y0188045D01*
X0030000Y0189644D02*
X0036600Y0189644D01*
X0036600Y0191242D02*
X0030000Y0191242D01*
X0030000Y0192841D02*
X0036600Y0192841D01*
X0036600Y0194439D02*
X0030000Y0194439D01*
X0030000Y0196038D02*
X0036600Y0196038D01*
X0036600Y0197636D02*
X0030000Y0197636D01*
X0030000Y0199235D02*
X0036600Y0199235D01*
X0036600Y0200833D02*
X0030000Y0200833D01*
X0030000Y0202432D02*
X0036600Y0202432D01*
X0036600Y0204030D02*
X0030000Y0204030D01*
X0030000Y0205629D02*
X0036600Y0205629D01*
X0036600Y0207227D02*
X0030000Y0207227D01*
X0032038Y0208826D02*
X0034562Y0208826D01*
X0033557Y0210424D02*
X0033043Y0210424D01*
X0052574Y0208826D02*
X0054562Y0208826D01*
X0053557Y0210424D02*
X0053474Y0210424D01*
X0062038Y0208826D02*
X0064562Y0208826D01*
X0063557Y0210424D02*
X0063043Y0210424D01*
X0068300Y0212300D02*
X0068300Y0195300D01*
X0071800Y0191800D01*
X0080384Y0180053D02*
X0102075Y0180053D01*
X0099777Y0178454D02*
X0082294Y0178454D01*
X0082829Y0176856D02*
X0098179Y0176856D01*
X0096580Y0175257D02*
X0082699Y0175257D01*
X0081778Y0173659D02*
X0094982Y0173659D01*
X0099138Y0170462D02*
X0101992Y0170462D01*
X0101940Y0170445D02*
X0101323Y0170130D01*
X0100763Y0169723D01*
X0100273Y0169233D01*
X0099866Y0168673D01*
X0099551Y0168056D01*
X0099337Y0167397D01*
X0099229Y0166713D01*
X0099229Y0166367D01*
X0106229Y0166367D01*
X0106229Y0166367D01*
X0106229Y0170767D01*
X0103283Y0170767D01*
X0102599Y0170659D01*
X0101940Y0170445D01*
X0100737Y0172060D02*
X0121328Y0172060D01*
X0121438Y0171950D02*
X0124752Y0171950D01*
X0127095Y0174293D01*
X0127095Y0177606D01*
X0124752Y0179950D01*
X0121438Y0179950D01*
X0119095Y0177606D01*
X0119095Y0174293D01*
X0121438Y0171950D01*
X0119729Y0173659D02*
X0111778Y0173659D01*
X0112699Y0175257D02*
X0119095Y0175257D01*
X0119095Y0176856D02*
X0112829Y0176856D01*
X0112294Y0178454D02*
X0119943Y0178454D01*
X0119573Y0183250D02*
X0041000Y0183250D01*
X0041000Y0184848D02*
X0118695Y0184848D01*
X0118695Y0186447D02*
X0041000Y0186447D01*
X0036600Y0170462D02*
X0031250Y0170462D01*
X0032848Y0168863D02*
X0037626Y0168863D01*
X0039224Y0167265D02*
X0034447Y0167265D01*
X0036045Y0165666D02*
X0040823Y0165666D01*
X0042421Y0164068D02*
X0037644Y0164068D01*
X0039242Y0162469D02*
X0044020Y0162469D01*
X0045618Y0160870D02*
X0040841Y0160870D01*
X0042439Y0159272D02*
X0047217Y0159272D01*
X0048815Y0157673D02*
X0044038Y0157673D01*
X0045636Y0156075D02*
X0050414Y0156075D01*
X0052012Y0154476D02*
X0047235Y0154476D01*
X0048833Y0152878D02*
X0053611Y0152878D01*
X0055209Y0151279D02*
X0050432Y0151279D01*
X0052030Y0149681D02*
X0056808Y0149681D01*
X0058406Y0148082D02*
X0053629Y0148082D01*
X0055227Y0146484D02*
X0060005Y0146484D01*
X0063233Y0146367D02*
X0076229Y0146367D01*
X0081172Y0149681D02*
X0089200Y0149681D01*
X0089200Y0151279D02*
X0061432Y0151279D01*
X0063030Y0149681D02*
X0071286Y0149681D01*
X0072833Y0152367D02*
X0071363Y0152976D01*
X0070238Y0154101D01*
X0069629Y0155571D01*
X0069629Y0157163D01*
X0070238Y0158633D01*
X0071363Y0159758D01*
X0072833Y0160367D01*
X0079625Y0160367D01*
X0081095Y0159758D01*
X0082220Y0158633D01*
X0082829Y0157163D01*
X0082829Y0155571D01*
X0082220Y0154101D01*
X0081095Y0152976D01*
X0079625Y0152367D01*
X0072833Y0152367D01*
X0071600Y0152878D02*
X0059833Y0152878D01*
X0058235Y0154476D02*
X0070083Y0154476D01*
X0069629Y0156075D02*
X0056636Y0156075D01*
X0055038Y0157673D02*
X0069841Y0157673D01*
X0070877Y0159272D02*
X0053439Y0159272D01*
X0051841Y0160870D02*
X0089200Y0160870D01*
X0089200Y0159272D02*
X0081581Y0159272D01*
X0082618Y0157673D02*
X0089200Y0157673D01*
X0089200Y0156075D02*
X0082829Y0156075D01*
X0082376Y0154476D02*
X0089200Y0154476D01*
X0089200Y0152878D02*
X0080858Y0152878D01*
X0082448Y0148082D02*
X0089200Y0148082D01*
X0089200Y0146484D02*
X0082829Y0146484D01*
X0082545Y0144885D02*
X0089200Y0144885D01*
X0089200Y0143287D02*
X0081406Y0143287D01*
X0082279Y0138491D02*
X0089200Y0138491D01*
X0089200Y0136893D02*
X0082829Y0136893D01*
X0082714Y0135294D02*
X0089200Y0135294D01*
X0089200Y0133696D02*
X0081815Y0133696D01*
X0081953Y0128900D02*
X0089200Y0128900D01*
X0089200Y0127302D02*
X0082771Y0127302D01*
X0082829Y0125703D02*
X0089200Y0125703D01*
X0089200Y0124105D02*
X0082222Y0124105D01*
X0089200Y0130499D02*
X0020314Y0130499D01*
X0018774Y0132097D02*
X0089200Y0132097D01*
X0094400Y0130499D02*
X0094424Y0130499D01*
X0094400Y0128900D02*
X0096023Y0128900D01*
X0097621Y0127302D02*
X0094400Y0127302D01*
X0094400Y0125703D02*
X0099220Y0125703D01*
X0100237Y0124105D02*
X0094400Y0124105D01*
X0094400Y0122506D02*
X0102497Y0122506D01*
X0102833Y0120367D02*
X0101363Y0119758D01*
X0100238Y0118633D01*
X0099629Y0117163D01*
X0099629Y0115571D01*
X0100238Y0114101D01*
X0101363Y0112976D01*
X0102833Y0112367D01*
X0109625Y0112367D01*
X0111095Y0112976D01*
X0112220Y0114101D01*
X0112829Y0115571D01*
X0112829Y0117163D01*
X0112220Y0118633D01*
X0111095Y0119758D01*
X0109625Y0120367D01*
X0102833Y0120367D01*
X0100915Y0119309D02*
X0094400Y0119309D01*
X0094400Y0117711D02*
X0099856Y0117711D01*
X0099629Y0116112D02*
X0094400Y0116112D01*
X0094400Y0114514D02*
X0100067Y0114514D01*
X0101510Y0112915D02*
X0094400Y0112915D01*
X0094400Y0111317D02*
X0129014Y0111317D01*
X0129014Y0111001D02*
X0131592Y0108424D01*
X0133414Y0108424D01*
X0133414Y0112823D01*
X0133414Y0112823D01*
X0133414Y0108424D01*
X0135237Y0108424D01*
X0137814Y0111001D01*
X0137814Y0112824D01*
X0137814Y0114646D01*
X0135237Y0117224D01*
X0133414Y0117224D01*
X0131592Y0117224D01*
X0129014Y0114646D01*
X0129014Y0112824D01*
X0133414Y0112824D01*
X0133414Y0117224D01*
X0133414Y0112824D01*
X0133414Y0112824D01*
X0133414Y0112824D01*
X0137814Y0112824D01*
X0133414Y0112824D01*
X0133414Y0112824D01*
X0129014Y0112824D01*
X0129014Y0111001D01*
X0130297Y0109718D02*
X0111135Y0109718D01*
X0111095Y0109758D02*
X0109625Y0110367D01*
X0102833Y0110367D01*
X0101363Y0109758D01*
X0100238Y0108633D01*
X0099629Y0107163D01*
X0099629Y0105571D01*
X0100238Y0104101D01*
X0101363Y0102976D01*
X0102833Y0102367D01*
X0109625Y0102367D01*
X0111095Y0102976D01*
X0112220Y0104101D01*
X0112829Y0105571D01*
X0112829Y0107163D01*
X0112220Y0108633D01*
X0111095Y0109758D01*
X0112433Y0108120D02*
X0164200Y0108120D01*
X0164200Y0109718D02*
X0136531Y0109718D01*
X0137814Y0111317D02*
X0164200Y0111317D01*
X0164200Y0112915D02*
X0137814Y0112915D01*
X0137814Y0114514D02*
X0164200Y0114514D01*
X0164200Y0116112D02*
X0136348Y0116112D01*
X0133414Y0116112D02*
X0133414Y0116112D01*
X0133414Y0114514D02*
X0133414Y0114514D01*
X0133414Y0112915D02*
X0133414Y0112915D01*
X0133414Y0111317D02*
X0133414Y0111317D01*
X0133414Y0109718D02*
X0133414Y0109718D01*
X0129014Y0112915D02*
X0110948Y0112915D01*
X0112391Y0114514D02*
X0129014Y0114514D01*
X0130480Y0116112D02*
X0112829Y0116112D01*
X0112602Y0117711D02*
X0164200Y0117711D01*
X0164200Y0119309D02*
X0111544Y0119309D01*
X0109961Y0122506D02*
X0164200Y0122506D01*
X0164200Y0120908D02*
X0094400Y0120908D01*
X0101778Y0130499D02*
X0164200Y0130499D01*
X0164200Y0132097D02*
X0100180Y0132097D01*
X0101363Y0132976D02*
X0100238Y0134101D01*
X0099629Y0135571D01*
X0099629Y0137163D01*
X0100238Y0138633D01*
X0101363Y0139758D01*
X0102833Y0140367D01*
X0109625Y0140367D01*
X0111095Y0139758D01*
X0112220Y0138633D01*
X0112829Y0137163D01*
X0112829Y0135571D01*
X0112220Y0134101D01*
X0111095Y0132976D01*
X0109625Y0132367D01*
X0102833Y0132367D01*
X0101363Y0132976D01*
X0100643Y0133696D02*
X0098581Y0133696D01*
X0099744Y0135294D02*
X0096983Y0135294D01*
X0095384Y0136893D02*
X0099629Y0136893D01*
X0100180Y0138491D02*
X0094400Y0138491D01*
X0094400Y0140090D02*
X0102165Y0140090D01*
X0102833Y0142367D02*
X0109625Y0142367D01*
X0111095Y0142976D01*
X0112220Y0144101D01*
X0112829Y0145571D01*
X0112829Y0147163D01*
X0112220Y0148633D01*
X0111095Y0149758D01*
X0109625Y0150367D01*
X0102833Y0150367D01*
X0101363Y0149758D01*
X0100238Y0148633D01*
X0099629Y0147163D01*
X0099629Y0145571D01*
X0100238Y0144101D01*
X0101363Y0142976D01*
X0102833Y0142367D01*
X0101052Y0143287D02*
X0094400Y0143287D01*
X0094400Y0144885D02*
X0099913Y0144885D01*
X0099629Y0146484D02*
X0094400Y0146484D01*
X0094400Y0148082D02*
X0100010Y0148082D01*
X0101286Y0149681D02*
X0094400Y0149681D01*
X0094400Y0151279D02*
X0164200Y0151279D01*
X0164200Y0149681D02*
X0111172Y0149681D01*
X0112448Y0148082D02*
X0164200Y0148082D01*
X0164200Y0146484D02*
X0112829Y0146484D01*
X0112545Y0144885D02*
X0164200Y0144885D01*
X0164200Y0143287D02*
X0111406Y0143287D01*
X0110294Y0140090D02*
X0164200Y0140090D01*
X0164200Y0141688D02*
X0094400Y0141688D01*
X0094400Y0152878D02*
X0101600Y0152878D01*
X0101363Y0152976D02*
X0102833Y0152367D01*
X0109625Y0152367D01*
X0111095Y0152976D01*
X0112220Y0154101D01*
X0112829Y0155571D01*
X0112829Y0157163D01*
X0112220Y0158633D01*
X0111095Y0159758D01*
X0109625Y0160367D01*
X0102833Y0160367D01*
X0101363Y0159758D01*
X0100238Y0158633D01*
X0099629Y0157163D01*
X0099629Y0155571D01*
X0100238Y0154101D01*
X0101363Y0152976D01*
X0100083Y0154476D02*
X0094400Y0154476D01*
X0094400Y0156075D02*
X0099629Y0156075D01*
X0099841Y0157673D02*
X0094400Y0157673D01*
X0094400Y0159272D02*
X0100877Y0159272D01*
X0101940Y0162289D02*
X0102599Y0162075D01*
X0103283Y0161967D01*
X0106229Y0161967D01*
X0106229Y0166367D01*
X0106229Y0166367D01*
X0099229Y0166367D01*
X0099229Y0166021D01*
X0099337Y0165337D01*
X0099551Y0164678D01*
X0099866Y0164061D01*
X0100273Y0163501D01*
X0100763Y0163011D01*
X0101323Y0162604D01*
X0101940Y0162289D01*
X0101587Y0162469D02*
X0094400Y0162469D01*
X0094400Y0160870D02*
X0128833Y0160870D01*
X0128833Y0161772D02*
X0128833Y0159950D01*
X0133233Y0159950D01*
X0133233Y0164350D01*
X0131411Y0164350D01*
X0128833Y0161772D01*
X0129530Y0162469D02*
X0110871Y0162469D01*
X0111135Y0162604D02*
X0111696Y0163011D01*
X0112185Y0163501D01*
X0112592Y0164061D01*
X0112907Y0164678D01*
X0113121Y0165337D01*
X0113229Y0166021D01*
X0113229Y0166367D01*
X0113229Y0166713D01*
X0113121Y0167397D01*
X0112907Y0168056D01*
X0112592Y0168673D01*
X0112185Y0169233D01*
X0111696Y0169723D01*
X0111135Y0170130D01*
X0110518Y0170445D01*
X0109859Y0170659D01*
X0109175Y0170767D01*
X0106229Y0170767D01*
X0106229Y0166367D01*
X0106229Y0166367D01*
X0113229Y0166367D01*
X0106229Y0166367D01*
X0106229Y0166367D01*
X0106229Y0161967D01*
X0109175Y0161967D01*
X0109859Y0162075D01*
X0110518Y0162289D01*
X0111135Y0162604D01*
X0112596Y0164068D02*
X0131128Y0164068D01*
X0131576Y0165950D02*
X0134890Y0165950D01*
X0137233Y0168293D01*
X0137233Y0171606D01*
X0134890Y0173950D01*
X0131576Y0173950D01*
X0129233Y0171606D01*
X0129233Y0168293D01*
X0131576Y0165950D01*
X0130261Y0167265D02*
X0113142Y0167265D01*
X0113173Y0165666D02*
X0156379Y0165666D01*
X0156395Y0165650D02*
X0159709Y0165650D01*
X0162052Y0167994D01*
X0162052Y0171307D01*
X0159709Y0173650D01*
X0156395Y0173650D01*
X0154052Y0171307D01*
X0154052Y0167994D01*
X0156395Y0165650D01*
X0156229Y0164050D02*
X0153652Y0161473D01*
X0153652Y0159650D01*
X0153652Y0157828D01*
X0156229Y0155250D01*
X0158052Y0155250D01*
X0159874Y0155250D01*
X0162452Y0157828D01*
X0162452Y0159650D01*
X0158052Y0159650D01*
X0158052Y0155250D01*
X0158052Y0159650D01*
X0158052Y0159650D01*
X0158052Y0159650D01*
X0153652Y0159650D01*
X0158052Y0159650D01*
X0158052Y0159650D01*
X0162452Y0159650D01*
X0162452Y0161473D01*
X0159874Y0164050D01*
X0158052Y0164050D01*
X0158052Y0159651D01*
X0158052Y0159651D01*
X0158052Y0164050D01*
X0156229Y0164050D01*
X0154648Y0162469D02*
X0149354Y0162469D01*
X0150200Y0161623D02*
X0147623Y0164200D01*
X0145800Y0164200D01*
X0145800Y0159800D01*
X0145800Y0159800D01*
X0150200Y0159800D01*
X0150200Y0161623D01*
X0150200Y0160870D02*
X0153652Y0160870D01*
X0153652Y0159272D02*
X0150200Y0159272D01*
X0150200Y0159800D02*
X0145800Y0159800D01*
X0145800Y0159800D01*
X0145800Y0159800D01*
X0141400Y0159800D01*
X0141400Y0161623D01*
X0143977Y0164200D01*
X0145800Y0164200D01*
X0145800Y0159800D01*
X0145800Y0155400D01*
X0147623Y0155400D01*
X0150200Y0157977D01*
X0150200Y0159800D01*
X0149896Y0157673D02*
X0153806Y0157673D01*
X0155405Y0156075D02*
X0148297Y0156075D01*
X0145800Y0156075D02*
X0145800Y0156075D01*
X0145800Y0155400D02*
X0145800Y0159800D01*
X0145800Y0159800D01*
X0141400Y0159800D01*
X0141400Y0157977D01*
X0143977Y0155400D01*
X0145800Y0155400D01*
X0145800Y0157673D02*
X0145800Y0157673D01*
X0145800Y0159272D02*
X0145800Y0159272D01*
X0145800Y0160870D02*
X0145800Y0160870D01*
X0145800Y0162469D02*
X0145800Y0162469D01*
X0145800Y0164068D02*
X0145800Y0164068D01*
X0147755Y0164068D02*
X0164200Y0164068D01*
X0164200Y0165666D02*
X0159724Y0165666D01*
X0161323Y0167265D02*
X0164200Y0167265D01*
X0164200Y0168863D02*
X0162052Y0168863D01*
X0162052Y0170462D02*
X0164200Y0170462D01*
X0164200Y0172060D02*
X0161299Y0172060D01*
X0164200Y0173659D02*
X0147598Y0173659D01*
X0147457Y0173800D02*
X0149800Y0171457D01*
X0149800Y0168143D01*
X0147457Y0165800D01*
X0144143Y0165800D01*
X0141800Y0168143D01*
X0141800Y0171457D01*
X0144143Y0173800D01*
X0147457Y0173800D01*
X0149197Y0172060D02*
X0154805Y0172060D01*
X0154052Y0170462D02*
X0149800Y0170462D01*
X0149800Y0168863D02*
X0154052Y0168863D01*
X0154781Y0167265D02*
X0148921Y0167265D01*
X0143845Y0164068D02*
X0135338Y0164068D01*
X0135056Y0164350D02*
X0133233Y0164350D01*
X0133233Y0159950D01*
X0133233Y0159950D01*
X0133233Y0159950D01*
X0137633Y0159950D01*
X0137633Y0161772D01*
X0135056Y0164350D01*
X0133233Y0164068D02*
X0133233Y0164068D01*
X0133233Y0162469D02*
X0133233Y0162469D01*
X0133233Y0160870D02*
X0133233Y0160870D01*
X0133233Y0159950D02*
X0133233Y0159950D01*
X0128833Y0159950D01*
X0128833Y0158127D01*
X0131411Y0155550D01*
X0133233Y0155550D01*
X0135056Y0155550D01*
X0137633Y0158127D01*
X0137633Y0159950D01*
X0133233Y0159950D01*
X0133233Y0159949D02*
X0133233Y0159949D01*
X0133233Y0155550D01*
X0133233Y0159949D01*
X0133233Y0159272D02*
X0133233Y0159272D01*
X0133233Y0157673D02*
X0133233Y0157673D01*
X0133233Y0156075D02*
X0133233Y0156075D01*
X0130885Y0156075D02*
X0112829Y0156075D01*
X0112618Y0157673D02*
X0129287Y0157673D01*
X0128833Y0159272D02*
X0111581Y0159272D01*
X0112376Y0154476D02*
X0164200Y0154476D01*
X0164200Y0152878D02*
X0110858Y0152878D01*
X0106229Y0162469D02*
X0106229Y0162469D01*
X0106229Y0164068D02*
X0106229Y0164068D01*
X0106229Y0165666D02*
X0106229Y0165666D01*
X0106229Y0167265D02*
X0106229Y0167265D01*
X0106229Y0168863D02*
X0106229Y0168863D01*
X0106229Y0170462D02*
X0106229Y0170462D01*
X0110466Y0170462D02*
X0129233Y0170462D01*
X0129233Y0168863D02*
X0112454Y0168863D01*
X0110384Y0180053D02*
X0132800Y0180053D01*
X0132800Y0179143D02*
X0135143Y0176800D01*
X0138457Y0176800D01*
X0140800Y0179143D01*
X0140800Y0182457D01*
X0138457Y0184800D01*
X0135143Y0184800D01*
X0132800Y0182457D01*
X0132800Y0179143D01*
X0133489Y0178454D02*
X0126248Y0178454D01*
X0127095Y0176856D02*
X0135088Y0176856D01*
X0135181Y0173659D02*
X0144002Y0173659D01*
X0142403Y0172060D02*
X0136779Y0172060D01*
X0137233Y0170462D02*
X0141800Y0170462D01*
X0141800Y0168863D02*
X0137233Y0168863D01*
X0136205Y0167265D02*
X0142679Y0167265D01*
X0142246Y0162469D02*
X0136936Y0162469D01*
X0137633Y0160870D02*
X0141400Y0160870D01*
X0141400Y0159272D02*
X0137633Y0159272D01*
X0137179Y0157673D02*
X0141704Y0157673D01*
X0143303Y0156075D02*
X0135581Y0156075D01*
X0129687Y0172060D02*
X0124863Y0172060D01*
X0126461Y0173659D02*
X0131285Y0173659D01*
X0127095Y0175257D02*
X0164200Y0175257D01*
X0164200Y0176856D02*
X0138512Y0176856D01*
X0140111Y0178454D02*
X0164200Y0178454D01*
X0164081Y0180053D02*
X0140800Y0180053D01*
X0140800Y0181651D02*
X0163619Y0181651D01*
X0163957Y0183250D02*
X0147406Y0183250D01*
X0141194Y0183250D02*
X0140007Y0183250D01*
X0140300Y0184848D02*
X0127495Y0184848D01*
X0127495Y0186447D02*
X0134931Y0186447D01*
X0133332Y0188045D02*
X0127222Y0188045D01*
X0125624Y0189644D02*
X0132400Y0189644D01*
X0133593Y0183250D02*
X0126618Y0183250D01*
X0125019Y0181651D02*
X0132800Y0181651D01*
X0118968Y0188045D02*
X0113702Y0188045D01*
X0100004Y0168863D02*
X0097540Y0168863D01*
X0095941Y0167265D02*
X0099316Y0167265D01*
X0099285Y0165666D02*
X0094400Y0165666D01*
X0094400Y0164068D02*
X0099863Y0164068D01*
X0090186Y0168863D02*
X0081990Y0168863D01*
X0082787Y0167265D02*
X0089200Y0167265D01*
X0089200Y0165666D02*
X0082829Y0165666D01*
X0082187Y0164068D02*
X0089200Y0164068D01*
X0089200Y0162469D02*
X0079871Y0162469D01*
X0072587Y0162469D02*
X0050242Y0162469D01*
X0048644Y0164068D02*
X0070272Y0164068D01*
X0069629Y0165666D02*
X0047045Y0165666D01*
X0045447Y0167265D02*
X0069671Y0167265D01*
X0112279Y0138491D02*
X0164200Y0138491D01*
X0164200Y0136893D02*
X0112829Y0136893D01*
X0112714Y0135294D02*
X0164200Y0135294D01*
X0164200Y0133696D02*
X0111815Y0133696D01*
X0111953Y0128900D02*
X0164200Y0128900D01*
X0164200Y0127302D02*
X0112771Y0127302D01*
X0112829Y0125703D02*
X0164200Y0125703D01*
X0164200Y0124105D02*
X0112222Y0124105D01*
X0101323Y0109718D02*
X0094400Y0109718D01*
X0094400Y0108120D02*
X0100026Y0108120D01*
X0099629Y0106521D02*
X0094400Y0106521D01*
X0094400Y0104923D02*
X0099898Y0104923D01*
X0101015Y0103324D02*
X0094400Y0103324D01*
X0094400Y0101726D02*
X0164200Y0101726D01*
X0164200Y0103324D02*
X0111443Y0103324D01*
X0112560Y0104923D02*
X0164200Y0104923D01*
X0164200Y0106521D02*
X0112829Y0106521D01*
X0110204Y0100127D02*
X0164200Y0100127D01*
X0164200Y0098529D02*
X0112263Y0098529D01*
X0111852Y0093733D02*
X0129461Y0093733D01*
X0129414Y0092134D02*
X0094400Y0092134D01*
X0094400Y0090536D02*
X0102221Y0090536D01*
X0100058Y0088937D02*
X0094400Y0088937D01*
X0094400Y0087339D02*
X0099328Y0087339D01*
X0099273Y0085740D02*
X0094400Y0085740D01*
X0094400Y0084142D02*
X0099825Y0084142D01*
X0106229Y0084142D02*
X0106229Y0084142D01*
X0106229Y0085740D02*
X0106229Y0085740D01*
X0106229Y0087339D02*
X0106229Y0087339D01*
X0106229Y0088937D02*
X0106229Y0088937D01*
X0106229Y0090536D02*
X0106229Y0090536D01*
X0110237Y0090536D02*
X0130045Y0090536D01*
X0106229Y0082543D02*
X0106229Y0082543D01*
X0100606Y0093733D02*
X0094400Y0093733D01*
X0094400Y0095332D02*
X0099728Y0095332D01*
X0099629Y0096930D02*
X0094400Y0096930D01*
X0094400Y0098529D02*
X0100195Y0098529D01*
X0102254Y0100127D02*
X0094400Y0100127D01*
X0089200Y0103324D02*
X0082009Y0103324D01*
X0082185Y0103501D02*
X0082592Y0104061D01*
X0082907Y0104678D01*
X0083121Y0105337D01*
X0083229Y0106021D01*
X0083229Y0106367D01*
X0083229Y0106713D01*
X0083121Y0107397D01*
X0082907Y0108056D01*
X0082592Y0108673D01*
X0082185Y0109233D01*
X0081696Y0109723D01*
X0081135Y0110130D01*
X0080518Y0110445D01*
X0079859Y0110659D01*
X0079175Y0110767D01*
X0076229Y0110767D01*
X0076229Y0106367D01*
X0076229Y0106367D01*
X0083229Y0106367D01*
X0076229Y0106367D01*
X0076229Y0106367D01*
X0076229Y0101967D01*
X0079175Y0101967D01*
X0079859Y0102075D01*
X0080518Y0102289D01*
X0081135Y0102604D01*
X0081696Y0103011D01*
X0082185Y0103501D01*
X0082986Y0104923D02*
X0089200Y0104923D01*
X0089200Y0106521D02*
X0083229Y0106521D01*
X0082874Y0108120D02*
X0089200Y0108120D01*
X0089200Y0109718D02*
X0081700Y0109718D01*
X0076229Y0109718D02*
X0076229Y0109718D01*
X0076229Y0108120D02*
X0076229Y0108120D01*
X0076229Y0106521D02*
X0076229Y0106521D01*
X0076229Y0104923D02*
X0076229Y0104923D01*
X0076229Y0103324D02*
X0076229Y0103324D01*
X0072254Y0100127D02*
X0058627Y0100127D01*
X0057741Y0098529D02*
X0070195Y0098529D01*
X0069629Y0096930D02*
X0055810Y0096930D01*
X0058033Y0095332D02*
X0069728Y0095332D01*
X0070606Y0093733D02*
X0058955Y0093733D01*
X0058514Y0088937D02*
X0070543Y0088937D01*
X0069702Y0087339D02*
X0057017Y0087339D01*
X0057072Y0085740D02*
X0069629Y0085740D01*
X0070221Y0084142D02*
X0058350Y0084142D01*
X0050528Y0085740D02*
X0035971Y0085740D01*
X0035800Y0087339D02*
X0050583Y0087339D01*
X0049086Y0088937D02*
X0035319Y0088937D01*
X0034000Y0090536D02*
X0048432Y0090536D01*
X0048300Y0092134D02*
X0034000Y0092134D01*
X0034000Y0093733D02*
X0048645Y0093733D01*
X0049567Y0095332D02*
X0034000Y0095332D01*
X0034000Y0096930D02*
X0051790Y0096930D01*
X0049859Y0098529D02*
X0034000Y0098529D01*
X0034000Y0100127D02*
X0048973Y0100127D01*
X0048700Y0101726D02*
X0034000Y0101726D01*
X0033387Y0103324D02*
X0048911Y0103324D01*
X0049710Y0104923D02*
X0031789Y0104923D01*
X0030190Y0106521D02*
X0051871Y0106521D01*
X0070067Y0114514D02*
X0022198Y0114514D01*
X0021900Y0116112D02*
X0069629Y0116112D01*
X0069856Y0117711D02*
X0021900Y0117711D01*
X0021281Y0119309D02*
X0070915Y0119309D01*
X0049250Y0084142D02*
X0037569Y0084142D01*
X0039168Y0082543D02*
X0048700Y0082543D01*
X0048700Y0080945D02*
X0040766Y0080945D01*
X0042365Y0079346D02*
X0049296Y0079346D01*
X0050640Y0077748D02*
X0043000Y0077748D01*
X0040800Y0077800D02*
X0031800Y0086800D01*
X0031800Y0101800D01*
X0016800Y0116800D01*
X0021774Y0108120D02*
X0022369Y0108120D01*
X0021900Y0106521D02*
X0023968Y0106521D01*
X0025566Y0104923D02*
X0021543Y0104923D01*
X0020537Y0103324D02*
X0027165Y0103324D01*
X0028763Y0101726D02*
X0018236Y0101726D01*
X0020685Y0100127D02*
X0029600Y0100127D01*
X0029600Y0098529D02*
X0023183Y0098529D01*
X0021800Y0096800D02*
X0024800Y0093800D01*
X0024800Y0051800D01*
X0029800Y0046800D01*
X0031800Y0046800D01*
X0035282Y0048975D02*
X0038600Y0048975D01*
X0038600Y0050573D02*
X0033684Y0050573D01*
X0035800Y0047376D02*
X0038600Y0047376D01*
X0038600Y0045778D02*
X0035800Y0045778D01*
X0034836Y0044179D02*
X0038600Y0044179D01*
X0037680Y0042581D02*
X0013600Y0042581D01*
X0013600Y0044179D02*
X0028764Y0044179D01*
X0027711Y0045778D02*
X0013600Y0045778D01*
X0013600Y0047376D02*
X0026113Y0047376D01*
X0024514Y0048975D02*
X0013600Y0048975D01*
X0013600Y0050573D02*
X0022916Y0050573D01*
X0022600Y0052172D02*
X0013600Y0052172D01*
X0013600Y0053770D02*
X0022600Y0053770D01*
X0022600Y0055369D02*
X0013600Y0055369D01*
X0013600Y0056967D02*
X0022600Y0056967D01*
X0022600Y0058566D02*
X0013600Y0058566D01*
X0013600Y0060164D02*
X0022600Y0060164D01*
X0022600Y0061763D02*
X0013600Y0061763D01*
X0013600Y0063361D02*
X0022600Y0063361D01*
X0022600Y0064960D02*
X0013600Y0064960D01*
X0013600Y0066558D02*
X0022600Y0066558D01*
X0022600Y0068157D02*
X0013600Y0068157D01*
X0013600Y0069755D02*
X0022600Y0069755D01*
X0022600Y0071354D02*
X0013600Y0071354D01*
X0013600Y0072952D02*
X0022600Y0072952D01*
X0022600Y0074551D02*
X0013600Y0074551D01*
X0013600Y0076149D02*
X0022600Y0076149D01*
X0022600Y0077748D02*
X0013600Y0077748D01*
X0013600Y0079346D02*
X0022600Y0079346D01*
X0022600Y0080945D02*
X0013600Y0080945D01*
X0016600Y0082543D02*
X0017000Y0082543D01*
X0017000Y0081300D02*
X0017233Y0081300D01*
X0018088Y0081435D01*
X0018911Y0081703D01*
X0019683Y0082096D01*
X0020383Y0082605D01*
X0020995Y0083217D01*
X0021504Y0083917D01*
X0021897Y0084689D01*
X0022165Y0085512D01*
X0022300Y0086367D01*
X0022300Y0086600D01*
X0017000Y0086600D01*
X0017000Y0081300D01*
X0017000Y0084142D02*
X0016600Y0084142D01*
X0016600Y0085740D02*
X0017000Y0085740D01*
X0020298Y0082543D02*
X0022600Y0082543D01*
X0022600Y0084142D02*
X0021618Y0084142D01*
X0022201Y0085740D02*
X0022600Y0085740D01*
X0022600Y0087339D02*
X0022283Y0087339D01*
X0022600Y0088937D02*
X0021884Y0088937D01*
X0022600Y0090536D02*
X0020842Y0090536D01*
X0022600Y0092134D02*
X0018863Y0092134D01*
X0020945Y0093733D02*
X0021756Y0093733D01*
X0021800Y0096800D02*
X0016800Y0096800D01*
X0024781Y0096930D02*
X0029600Y0096930D01*
X0029600Y0095332D02*
X0026380Y0095332D01*
X0027000Y0093733D02*
X0029600Y0093733D01*
X0029600Y0092134D02*
X0027000Y0092134D01*
X0027000Y0090536D02*
X0029600Y0090536D01*
X0028281Y0088937D02*
X0027000Y0088937D01*
X0027000Y0087339D02*
X0027800Y0087339D01*
X0027800Y0085740D02*
X0027000Y0085740D01*
X0027000Y0084142D02*
X0028801Y0084142D01*
X0027000Y0082543D02*
X0032945Y0082543D01*
X0034544Y0080945D02*
X0027000Y0080945D01*
X0027000Y0079346D02*
X0036142Y0079346D01*
X0037741Y0077748D02*
X0027000Y0077748D01*
X0027000Y0076149D02*
X0038600Y0076149D01*
X0038600Y0074551D02*
X0027000Y0074551D01*
X0027000Y0072952D02*
X0038600Y0072952D01*
X0038600Y0071354D02*
X0027000Y0071354D01*
X0027000Y0069755D02*
X0038600Y0069755D01*
X0038600Y0068157D02*
X0027000Y0068157D01*
X0027000Y0066558D02*
X0038600Y0066558D01*
X0038600Y0064960D02*
X0027000Y0064960D01*
X0027000Y0063361D02*
X0038600Y0063361D01*
X0038600Y0061763D02*
X0027000Y0061763D01*
X0027000Y0060164D02*
X0038600Y0060164D01*
X0038600Y0058566D02*
X0027000Y0058566D01*
X0027000Y0056967D02*
X0038600Y0056967D01*
X0038600Y0055369D02*
X0027000Y0055369D01*
X0027000Y0053770D02*
X0038600Y0053770D01*
X0038600Y0052172D02*
X0027540Y0052172D01*
X0029138Y0050573D02*
X0029916Y0050573D01*
X0037696Y0040982D02*
X0013600Y0040982D01*
X0013600Y0039384D02*
X0038718Y0039384D01*
X0039786Y0033900D02*
X0037911Y0033124D01*
X0036476Y0031689D01*
X0035700Y0029814D01*
X0035700Y0027786D01*
X0036476Y0025911D01*
X0037911Y0024476D01*
X0039786Y0023700D01*
X0041814Y0023700D01*
X0043689Y0024476D01*
X0045124Y0025911D01*
X0045900Y0027786D01*
X0045900Y0029814D01*
X0045124Y0031689D01*
X0043689Y0033124D01*
X0041814Y0033900D01*
X0039786Y0033900D01*
X0037777Y0032990D02*
X0024389Y0032990D01*
X0024383Y0032995D02*
X0023683Y0033504D01*
X0022911Y0033897D01*
X0022088Y0034165D01*
X0021233Y0034300D01*
X0021000Y0034300D01*
X0021000Y0029000D01*
X0026300Y0029000D01*
X0026300Y0029233D01*
X0026165Y0030088D01*
X0025897Y0030911D01*
X0025504Y0031683D01*
X0024995Y0032383D01*
X0024383Y0032995D01*
X0025653Y0031391D02*
X0036353Y0031391D01*
X0035700Y0029793D02*
X0026211Y0029793D01*
X0026273Y0028194D02*
X0035700Y0028194D01*
X0036193Y0026596D02*
X0025850Y0026596D01*
X0024775Y0024997D02*
X0037390Y0024997D01*
X0044210Y0024997D02*
X0067946Y0024997D01*
X0067800Y0026596D02*
X0045407Y0026596D01*
X0045900Y0028194D02*
X0067800Y0028194D01*
X0069136Y0029793D02*
X0045900Y0029793D01*
X0045247Y0031391D02*
X0094600Y0031391D01*
X0094600Y0032990D02*
X0043823Y0032990D01*
X0043000Y0044179D02*
X0070206Y0044179D01*
X0069629Y0045778D02*
X0043000Y0045778D01*
X0043000Y0047376D02*
X0069718Y0047376D01*
X0070580Y0048975D02*
X0043000Y0048975D01*
X0050745Y0060164D02*
X0072344Y0060164D01*
X0070978Y0063361D02*
X0043000Y0063361D01*
X0043000Y0061763D02*
X0088086Y0061763D01*
X0089200Y0063361D02*
X0081480Y0063361D01*
X0082576Y0064960D02*
X0089200Y0064960D01*
X0089200Y0066558D02*
X0082829Y0066558D01*
X0082417Y0068157D02*
X0089200Y0068157D01*
X0089200Y0069755D02*
X0081098Y0069755D01*
X0082406Y0074551D02*
X0089200Y0074551D01*
X0089200Y0076149D02*
X0082829Y0076149D01*
X0082587Y0077748D02*
X0089200Y0077748D01*
X0089200Y0079346D02*
X0081506Y0079346D01*
X0070041Y0068157D02*
X0045268Y0068157D01*
X0043670Y0066558D02*
X0069629Y0066558D01*
X0069882Y0064960D02*
X0043000Y0064960D01*
X0040800Y0066800D02*
X0040800Y0071800D01*
X0040800Y0077800D01*
X0043000Y0072952D02*
X0043841Y0072952D01*
X0013600Y0037785D02*
X0094600Y0037785D01*
X0094600Y0036187D02*
X0013600Y0036187D01*
X0013600Y0034588D02*
X0094600Y0034588D01*
X0099000Y0036187D02*
X0132757Y0036187D01*
X0131800Y0037785D02*
X0099000Y0037785D01*
X0099000Y0039384D02*
X0131800Y0039384D01*
X0132325Y0040982D02*
X0099000Y0040982D01*
X0094136Y0029793D02*
X0084464Y0029793D01*
X0085800Y0028194D02*
X0092800Y0028194D01*
X0092800Y0026596D02*
X0085800Y0026596D01*
X0085654Y0024997D02*
X0092946Y0024997D01*
X0079136Y0029793D02*
X0074464Y0029793D01*
X0075800Y0028194D02*
X0077800Y0028194D01*
X0077800Y0026596D02*
X0075800Y0026596D01*
X0075654Y0024997D02*
X0077946Y0024997D01*
X0109464Y0029793D02*
X0132636Y0029793D01*
X0131800Y0028194D02*
X0110800Y0028194D01*
X0110800Y0026596D02*
X0131800Y0026596D01*
X0132446Y0024997D02*
X0110654Y0024997D01*
X0139154Y0024997D02*
X0171880Y0024997D01*
X0171400Y0026596D02*
X0139800Y0026596D01*
X0139800Y0028194D02*
X0171400Y0028194D01*
X0172070Y0029793D02*
X0138964Y0029793D01*
X0101361Y0069755D02*
X0094400Y0069755D01*
X0094400Y0068157D02*
X0100041Y0068157D01*
X0099629Y0066558D02*
X0094400Y0066558D01*
X0094400Y0064960D02*
X0099882Y0064960D01*
X0086487Y0060164D02*
X0080114Y0060164D01*
X0021000Y0032990D02*
X0020600Y0032990D01*
X0020600Y0031391D02*
X0021000Y0031391D01*
X0021000Y0029793D02*
X0020600Y0029793D01*
X0017211Y0032990D02*
X0013600Y0032990D01*
X0013600Y0031391D02*
X0015947Y0031391D01*
X0015389Y0029793D02*
X0013600Y0029793D01*
X0013600Y0028194D02*
X0015327Y0028194D01*
X0015750Y0026596D02*
X0013600Y0026596D01*
X0013600Y0024997D02*
X0016825Y0024997D01*
X0158052Y0156075D02*
X0158052Y0156075D01*
X0158052Y0157673D02*
X0158052Y0157673D01*
X0158052Y0159272D02*
X0158052Y0159272D01*
X0158052Y0160870D02*
X0158052Y0160870D01*
X0158052Y0162469D02*
X0158052Y0162469D01*
X0161456Y0162469D02*
X0164200Y0162469D01*
X0164200Y0160870D02*
X0162452Y0160870D01*
X0162452Y0159272D02*
X0164200Y0159272D01*
X0164200Y0157673D02*
X0162298Y0157673D01*
X0160699Y0156075D02*
X0164200Y0156075D01*
X0178000Y0156075D02*
X0183600Y0156075D01*
X0183600Y0157673D02*
X0178000Y0157673D01*
X0178000Y0159272D02*
X0183600Y0159272D01*
X0183600Y0160870D02*
X0178000Y0160870D01*
X0178000Y0162469D02*
X0183600Y0162469D01*
X0183600Y0164068D02*
X0178000Y0164068D01*
X0178000Y0165666D02*
X0183600Y0165666D01*
X0183600Y0167265D02*
X0178000Y0167265D01*
X0178000Y0168863D02*
X0183600Y0168863D01*
X0183600Y0170462D02*
X0178000Y0170462D01*
X0178000Y0172060D02*
X0183600Y0172060D01*
X0183600Y0173659D02*
X0178000Y0173659D01*
X0178000Y0175257D02*
X0183600Y0175257D01*
X0183600Y0176856D02*
X0178000Y0176856D01*
X0178000Y0178454D02*
X0183600Y0178454D01*
X0183600Y0180053D02*
X0178000Y0180053D01*
X0178000Y0181651D02*
X0183600Y0181651D01*
X0183600Y0183250D02*
X0178000Y0183250D01*
X0178000Y0184848D02*
X0183600Y0184848D01*
X0178674Y0186447D02*
X0178000Y0186447D01*
X0181146Y0202432D02*
X0181147Y0202432D01*
X0181146Y0204030D02*
X0181147Y0204030D01*
X0181146Y0205629D02*
X0181147Y0205629D01*
X0178432Y0205629D02*
X0165409Y0205629D01*
X0159136Y0205629D02*
X0156978Y0205629D01*
X0158103Y0207227D02*
X0158142Y0207227D01*
X0158271Y0210424D02*
X0157974Y0210424D01*
X0156667Y0212023D02*
X0159447Y0212023D01*
X0178000Y0154476D02*
X0183600Y0154476D01*
X0183600Y0152878D02*
X0178000Y0152878D01*
X0178000Y0151279D02*
X0183600Y0151279D01*
X0183600Y0149681D02*
X0178000Y0149681D01*
X0178000Y0148082D02*
X0183600Y0148082D01*
X0183600Y0146484D02*
X0178000Y0146484D01*
X0178000Y0144885D02*
X0183600Y0144885D01*
X0183600Y0143287D02*
X0178000Y0143287D01*
X0178000Y0141688D02*
X0183600Y0141688D01*
X0183600Y0140090D02*
X0178000Y0140090D01*
X0178000Y0138491D02*
X0183600Y0138491D01*
X0183600Y0136893D02*
X0178000Y0136893D01*
X0178000Y0135294D02*
X0183600Y0135294D01*
X0183197Y0133696D02*
X0178000Y0133696D01*
X0178000Y0132097D02*
X0182619Y0132097D01*
X0182896Y0130499D02*
X0178000Y0130499D01*
X0178000Y0128900D02*
X0184488Y0128900D01*
X0187112Y0128900D02*
X0189600Y0128900D01*
X0189600Y0127302D02*
X0178000Y0127302D01*
X0178000Y0125703D02*
X0189600Y0125703D01*
X0189600Y0124105D02*
X0178000Y0124105D01*
X0177617Y0122506D02*
X0189600Y0122506D01*
X0189600Y0120908D02*
X0176874Y0120908D01*
X0175808Y0119309D02*
X0189600Y0119309D01*
X0189600Y0117711D02*
X0169400Y0117711D01*
X0169400Y0119309D02*
X0171792Y0119309D01*
X0170726Y0120908D02*
X0169400Y0120908D01*
X0169400Y0122506D02*
X0170649Y0122506D01*
X0169400Y0116112D02*
X0189600Y0116112D01*
X0189600Y0114514D02*
X0169400Y0114514D01*
X0169400Y0112915D02*
X0189600Y0112915D01*
X0189600Y0111317D02*
X0169400Y0111317D01*
X0169400Y0109718D02*
X0185532Y0109718D01*
X0183903Y0108120D02*
X0169400Y0108120D01*
X0170756Y0106521D02*
X0183410Y0106521D01*
X0181811Y0104923D02*
X0172354Y0104923D01*
X0173953Y0103324D02*
X0180213Y0103324D01*
X0179600Y0101726D02*
X0175551Y0101726D01*
X0177150Y0100127D02*
X0179600Y0100127D01*
X0179600Y0098529D02*
X0179527Y0098529D01*
X0181800Y0101800D02*
X0186800Y0106800D01*
X0188068Y0109718D02*
X0189600Y0109718D01*
X0189600Y0104923D02*
X0189421Y0104923D01*
X0189600Y0103324D02*
X0186435Y0103324D01*
X0184837Y0101726D02*
X0189600Y0101726D01*
X0189600Y0100127D02*
X0184000Y0100127D01*
X0184000Y0098529D02*
X0189600Y0098529D01*
X0189600Y0096930D02*
X0184000Y0096930D01*
X0184000Y0095332D02*
X0189600Y0095332D01*
X0181800Y0101800D02*
X0181800Y0076800D01*
X0179550Y0074551D02*
X0169400Y0074551D01*
X0169400Y0076149D02*
X0178626Y0076149D01*
X0178749Y0077748D02*
X0169400Y0077748D01*
X0169400Y0079346D02*
X0179600Y0079346D01*
X0173965Y0095332D02*
X0169400Y0095332D01*
X0169400Y0096930D02*
X0172993Y0096930D01*
X0171395Y0098529D02*
X0169400Y0098529D01*
X0169400Y0100127D02*
X0169796Y0100127D01*
X0204100Y0085740D02*
X0204500Y0085740D01*
X0204500Y0084142D02*
X0204100Y0084142D01*
X0204100Y0082543D02*
X0204500Y0082543D01*
X0206850Y0029793D02*
X0179530Y0029793D01*
X0180200Y0028194D02*
X0206850Y0028194D01*
X0206850Y0026596D02*
X0180200Y0026596D01*
X0179720Y0024997D02*
X0206850Y0024997D01*
D19*
X0166800Y0066800D02*
X0166800Y0106800D01*
X0176800Y0096800D01*
X0166800Y0106800D02*
X0166800Y0181800D01*
X0144300Y0185800D02*
X0144300Y0203020D01*
X0138650Y0208670D01*
X0106229Y0176367D02*
X0105796Y0176800D01*
X0101800Y0176800D01*
X0091800Y0166800D01*
X0091800Y0136800D01*
X0101800Y0126800D01*
X0105796Y0126800D01*
X0106229Y0126367D01*
X0091800Y0136800D02*
X0091800Y0061800D01*
X0086367Y0056367D01*
X0076229Y0056367D01*
D20*
X0093800Y0050800D03*
X0040800Y0041800D03*
X0166800Y0066800D03*
X0181800Y0076800D03*
X0176800Y0096800D03*
X0186800Y0106800D03*
X0173800Y0121800D03*
X0185800Y0131800D03*
X0166800Y0181800D03*
X0186800Y0046800D03*
M02*
