%
M48
M72
T01C0.02362
T02C0.03150
T03C0.03200
T04C0.03937
T05C0.04000
T06C0.07480
%
T01
X40800Y41800
X93800Y50800
X166800Y66800
X181800Y76800
X176800Y96800
X186800Y106800
X173800Y121800
X185800Y131800
X166800Y181800
X186800Y46800
T02
X181146Y189595
X185871Y192745
X181146Y195894
X185871Y199044
X181146Y202194
X154398Y208670
X146524Y208670
X138650Y208670
T03
X71800Y191800
X76229Y176367
X76229Y166367
X76229Y156367
X76229Y146367
X76229Y136367
X76229Y126367
X76229Y116367
X76229Y106367
X76229Y96367
X76229Y86367
X76229Y76367
X76229Y66367
X76229Y56367
X76229Y46367
X71800Y26800
X81800Y26800
X96800Y26800
X106800Y26800
X106229Y46367
X106229Y56367
X106229Y66367
X106229Y76367
X106229Y86367
X106229Y96367
X106229Y106367
X106229Y116367
X106229Y126367
X106229Y136367
X106229Y146367
X106229Y156367
X106229Y166367
X106229Y176367
X111800Y191800
X123095Y185950
X123095Y175950
X133233Y169950
X133233Y159950
X145800Y159800
X145800Y169800
X158052Y169650
X158052Y159650
X136800Y180800
X144300Y185800
X136800Y190800
X133414Y112824
X133414Y92824
X135800Y38800
X135800Y27300
X175800Y27300
X175800Y38800
X58650Y56036
X48650Y56036
X31800Y46800
X31800Y86800
T04
X130776Y208670
X162272Y208670
T05
X18300Y212300
X28300Y212300
X38300Y212300
X48300Y212300
X58300Y212300
X68300Y212300
X92800Y211800
X112800Y211800
X204300Y156800
X204300Y146800
X204300Y136800
X204300Y126800
X204300Y116800
X204300Y106800
X204300Y96800
X204300Y86800
X53800Y81800
X53800Y91800
X53800Y101800
X16800Y96800
X16800Y86800
X16800Y106800
X16800Y116800
X16800Y126800
X16800Y136800
X16800Y146800
X16800Y156800
X20800Y28800
X40800Y28800
T06
X201225Y181524
X201225Y210265
M30
