G75*
%MOIN*%
%OFA0B0*%
%FSLAX25Y25*%
%IPPOS*%
%LPD*%
%AMOC8*
5,1,8,0,0,1.08239X$1,22.5*
%
%ADD10C,0.00000*%
%ADD11C,0.00400*%
%ADD12C,0.00500*%
D10*
X0011800Y0021800D02*
X0011800Y0218650D01*
X0208650Y0218650D01*
X0208650Y0021800D01*
X0011800Y0021800D01*
D11*
X0033298Y0084000D02*
X0032531Y0084767D01*
X0032531Y0086302D01*
X0034065Y0086302D01*
X0032531Y0087837D02*
X0033298Y0088604D01*
X0034833Y0088604D01*
X0035600Y0087837D01*
X0035600Y0084767D01*
X0034833Y0084000D01*
X0033298Y0084000D01*
X0033833Y0094000D02*
X0032298Y0094000D01*
X0031531Y0094767D01*
X0031531Y0095535D01*
X0032298Y0096302D01*
X0033065Y0096302D01*
X0032298Y0096302D02*
X0031531Y0097069D01*
X0031531Y0097837D01*
X0032298Y0098604D01*
X0033833Y0098604D01*
X0034600Y0097837D01*
X0034600Y0094767D02*
X0033833Y0094000D01*
X0029996Y0094000D02*
X0029229Y0094000D01*
X0029229Y0094767D01*
X0029996Y0094767D01*
X0029996Y0094000D01*
X0027694Y0094767D02*
X0026927Y0094000D01*
X0025392Y0094000D01*
X0024625Y0094767D01*
X0024625Y0095535D01*
X0025392Y0096302D01*
X0026159Y0096302D01*
X0025392Y0096302D02*
X0024625Y0097069D01*
X0024625Y0097837D01*
X0025392Y0098604D01*
X0026927Y0098604D01*
X0027694Y0097837D01*
X0023090Y0098604D02*
X0023090Y0095535D01*
X0021556Y0094000D01*
X0020021Y0095535D01*
X0020021Y0098604D01*
X0027694Y0104000D02*
X0027694Y0108604D01*
X0029996Y0106302D01*
X0026927Y0106302D01*
X0031531Y0106302D02*
X0034600Y0106302D01*
X0034600Y0107069D02*
X0033065Y0108604D01*
X0031531Y0107069D01*
X0031531Y0104000D01*
X0034600Y0104000D02*
X0034600Y0107069D01*
X0034600Y0114000D02*
X0032298Y0114000D01*
X0031531Y0114767D01*
X0031531Y0115535D01*
X0032298Y0116302D01*
X0034600Y0116302D01*
X0034600Y0118604D02*
X0032298Y0118604D01*
X0031531Y0117837D01*
X0031531Y0117069D01*
X0032298Y0116302D01*
X0029996Y0116302D02*
X0026927Y0116302D01*
X0027694Y0114000D02*
X0027694Y0118604D01*
X0029996Y0116302D01*
X0034600Y0114000D02*
X0034600Y0118604D01*
X0034600Y0124000D02*
X0032298Y0124000D01*
X0031531Y0124767D01*
X0031531Y0125535D01*
X0032298Y0126302D01*
X0034600Y0126302D01*
X0034600Y0128604D02*
X0032298Y0128604D01*
X0031531Y0127837D01*
X0031531Y0127069D01*
X0032298Y0126302D01*
X0029996Y0127837D02*
X0029229Y0128604D01*
X0027694Y0128604D01*
X0026927Y0127837D01*
X0026927Y0127069D01*
X0027694Y0126302D01*
X0026927Y0125535D01*
X0026927Y0124767D01*
X0027694Y0124000D01*
X0029229Y0124000D01*
X0029996Y0124767D01*
X0028461Y0126302D02*
X0027694Y0126302D01*
X0034600Y0124000D02*
X0034600Y0128604D01*
X0034600Y0134000D02*
X0032298Y0134000D01*
X0031531Y0134767D01*
X0031531Y0135535D01*
X0032298Y0136302D01*
X0034600Y0136302D01*
X0034600Y0138604D02*
X0032298Y0138604D01*
X0031531Y0137837D01*
X0031531Y0137069D01*
X0032298Y0136302D01*
X0029996Y0137837D02*
X0029229Y0138604D01*
X0027694Y0138604D01*
X0026927Y0137837D01*
X0026927Y0137069D01*
X0029996Y0134000D01*
X0026927Y0134000D01*
X0034600Y0134000D02*
X0034600Y0138604D01*
X0034600Y0144000D02*
X0034600Y0147069D01*
X0033065Y0148604D01*
X0031531Y0147069D01*
X0031531Y0144000D01*
X0029996Y0144000D02*
X0026927Y0144000D01*
X0028461Y0144000D02*
X0028461Y0148604D01*
X0029996Y0147069D01*
X0031531Y0146302D02*
X0034600Y0146302D01*
X0034600Y0154000D02*
X0034600Y0157069D01*
X0033065Y0158604D01*
X0031531Y0157069D01*
X0031531Y0154000D01*
X0029996Y0154767D02*
X0026927Y0157837D01*
X0026927Y0154767D01*
X0027694Y0154000D01*
X0029229Y0154000D01*
X0029996Y0154767D01*
X0029996Y0157837D01*
X0029229Y0158604D01*
X0027694Y0158604D01*
X0026927Y0157837D01*
X0031531Y0156302D02*
X0034600Y0156302D01*
X0181323Y0156302D02*
X0181323Y0154767D01*
X0182090Y0154000D01*
X0183625Y0154000D01*
X0184392Y0154767D01*
X0184392Y0156302D02*
X0182858Y0157069D01*
X0182090Y0157069D01*
X0181323Y0156302D01*
X0181323Y0158604D02*
X0184392Y0158604D01*
X0184392Y0156302D01*
X0185927Y0154000D02*
X0188996Y0154000D01*
X0187461Y0154000D02*
X0187461Y0158604D01*
X0188996Y0157069D01*
X0190531Y0157069D02*
X0191298Y0156302D01*
X0193600Y0156302D01*
X0193600Y0158604D02*
X0191298Y0158604D01*
X0190531Y0157837D01*
X0190531Y0157069D01*
X0191298Y0156302D02*
X0190531Y0155535D01*
X0190531Y0154767D01*
X0191298Y0154000D01*
X0193600Y0154000D01*
X0193600Y0158604D01*
X0193600Y0148604D02*
X0191298Y0148604D01*
X0190531Y0147837D01*
X0190531Y0147069D01*
X0191298Y0146302D01*
X0193600Y0146302D01*
X0193600Y0144000D02*
X0193600Y0148604D01*
X0191298Y0146302D02*
X0190531Y0145535D01*
X0190531Y0144767D01*
X0191298Y0144000D01*
X0193600Y0144000D01*
X0188996Y0144000D02*
X0185927Y0144000D01*
X0187461Y0144000D02*
X0187461Y0148604D01*
X0188996Y0147069D01*
X0184392Y0146302D02*
X0181323Y0146302D01*
X0182090Y0144000D02*
X0182090Y0148604D01*
X0184392Y0146302D01*
X0183625Y0138604D02*
X0182090Y0138604D01*
X0181323Y0137837D01*
X0181323Y0137069D01*
X0182090Y0136302D01*
X0181323Y0135535D01*
X0181323Y0134767D01*
X0182090Y0134000D01*
X0183625Y0134000D01*
X0184392Y0134767D01*
X0185927Y0134000D02*
X0188996Y0134000D01*
X0187461Y0134000D02*
X0187461Y0138604D01*
X0188996Y0137069D01*
X0190531Y0137069D02*
X0190531Y0137837D01*
X0191298Y0138604D01*
X0193600Y0138604D01*
X0193600Y0134000D01*
X0191298Y0134000D01*
X0190531Y0134767D01*
X0190531Y0135535D01*
X0191298Y0136302D01*
X0193600Y0136302D01*
X0191298Y0136302D02*
X0190531Y0137069D01*
X0184392Y0137837D02*
X0183625Y0138604D01*
X0182858Y0136302D02*
X0182090Y0136302D01*
X0186694Y0127604D02*
X0188229Y0127604D01*
X0188996Y0126837D01*
X0188996Y0126069D01*
X0188229Y0125302D01*
X0185927Y0125302D01*
X0185927Y0123767D02*
X0185927Y0126837D01*
X0186694Y0127604D01*
X0185927Y0123767D02*
X0186694Y0123000D01*
X0188229Y0123000D01*
X0188996Y0123767D01*
X0190531Y0123767D02*
X0190531Y0124535D01*
X0191298Y0125302D01*
X0193600Y0125302D01*
X0193600Y0127604D02*
X0191298Y0127604D01*
X0190531Y0126837D01*
X0190531Y0126069D01*
X0191298Y0125302D01*
X0190531Y0123767D02*
X0191298Y0123000D01*
X0193600Y0123000D01*
X0193600Y0127604D01*
X0193600Y0118604D02*
X0191298Y0118604D01*
X0190531Y0117837D01*
X0190531Y0117069D01*
X0191298Y0116302D01*
X0193600Y0116302D01*
X0193600Y0114000D02*
X0193600Y0118604D01*
X0191298Y0116302D02*
X0190531Y0115535D01*
X0190531Y0114767D01*
X0191298Y0114000D01*
X0193600Y0114000D01*
X0188996Y0114767D02*
X0188229Y0114000D01*
X0186694Y0114000D01*
X0185927Y0114767D01*
X0185927Y0115535D01*
X0186694Y0116302D01*
X0188229Y0116302D01*
X0188996Y0117069D01*
X0188996Y0117837D01*
X0188229Y0118604D01*
X0186694Y0118604D01*
X0185927Y0117837D01*
X0185927Y0117069D01*
X0186694Y0116302D01*
X0188229Y0116302D02*
X0188996Y0115535D01*
X0188996Y0114767D01*
X0188996Y0108604D02*
X0185927Y0108604D01*
X0185927Y0107837D01*
X0188996Y0104767D01*
X0188996Y0104000D01*
X0190531Y0104767D02*
X0190531Y0105535D01*
X0191298Y0106302D01*
X0193600Y0106302D01*
X0193600Y0108604D02*
X0191298Y0108604D01*
X0190531Y0107837D01*
X0190531Y0107069D01*
X0191298Y0106302D01*
X0190531Y0104767D02*
X0191298Y0104000D01*
X0193600Y0104000D01*
X0193600Y0108604D01*
X0193600Y0097604D02*
X0190531Y0097604D01*
X0188996Y0097604D02*
X0188996Y0094535D01*
X0187461Y0093000D01*
X0185927Y0094535D01*
X0185927Y0097604D01*
X0190531Y0095302D02*
X0190531Y0093767D01*
X0191298Y0093000D01*
X0192833Y0093000D01*
X0193600Y0093767D01*
X0193600Y0095302D02*
X0192065Y0096069D01*
X0191298Y0096069D01*
X0190531Y0095302D01*
X0193600Y0095302D02*
X0193600Y0097604D01*
X0192833Y0088604D02*
X0191298Y0088604D01*
X0190531Y0087837D01*
X0190531Y0086302D02*
X0192065Y0086302D01*
X0190531Y0086302D02*
X0190531Y0084767D01*
X0191298Y0084000D01*
X0192833Y0084000D01*
X0193600Y0084767D01*
X0193600Y0087837D01*
X0192833Y0088604D01*
X0188996Y0088604D02*
X0188996Y0084000D01*
X0185927Y0084000D02*
X0185927Y0088604D01*
X0184392Y0088604D02*
X0182090Y0088604D01*
X0181323Y0087837D01*
X0181323Y0084767D01*
X0182090Y0084000D01*
X0184392Y0084000D01*
X0184392Y0088604D01*
X0188996Y0088604D02*
X0185927Y0084000D01*
D12*
X0180556Y0180540D02*
X0215989Y0180540D01*
X0215989Y0211249D01*
X0180556Y0211249D01*
X0180556Y0180540D01*
X0194335Y0192942D02*
X0194335Y0198847D01*
X0214020Y0200816D01*
X0214020Y0203769D02*
X0196304Y0201800D01*
X0196304Y0209674D02*
X0214020Y0207706D01*
X0214020Y0203769D01*
X0214020Y0190973D02*
X0194335Y0192942D01*
X0198272Y0189989D02*
X0214020Y0188020D01*
X0214020Y0184083D01*
X0198272Y0182115D01*
M02*
