G75*
%MOIN*%
%OFA0B0*%
%FSLAX25Y25*%
%IPPOS*%
%LPD*%
%AMOC8*
5,1,8,0,0,1.08239X$1,22.5*
%
%ADD10C,0.00000*%
%ADD11C,0.07400*%
%ADD12OC8,0.05200*%
%ADD13C,0.05150*%
%ADD14C,0.05937*%
%ADD15C,0.05200*%
%ADD16C,0.11220*%
%ADD17C,0.05200*%
%ADD18C,0.01600*%
%ADD19C,0.02400*%
%ADD20C,0.03562*%
D10*
X0011800Y0021800D02*
X0011800Y0218650D01*
X0208650Y0218650D01*
X0208650Y0021800D01*
X0011800Y0021800D01*
D11*
X0020800Y0028800D03*
X0040800Y0028800D03*
X0053800Y0081800D03*
X0053800Y0091800D03*
X0053800Y0101800D03*
X0016800Y0096800D03*
X0016800Y0086800D03*
X0016800Y0106800D03*
X0016800Y0116800D03*
X0016800Y0126800D03*
X0016800Y0136800D03*
X0016800Y0146800D03*
X0016800Y0156800D03*
X0018300Y0212300D03*
X0028300Y0212300D03*
X0038300Y0212300D03*
X0048300Y0212300D03*
X0058300Y0212300D03*
X0068300Y0212300D03*
X0092800Y0211800D03*
X0112800Y0211800D03*
X0204300Y0156800D03*
X0204300Y0146800D03*
X0204300Y0136800D03*
X0204300Y0126800D03*
X0204300Y0116800D03*
X0204300Y0106800D03*
X0204300Y0096800D03*
X0204300Y0086800D03*
D12*
X0175800Y0038800D03*
X0175800Y0027300D03*
X0135800Y0027300D03*
X0135800Y0038800D03*
X0106800Y0026800D03*
X0096800Y0026800D03*
X0081800Y0026800D03*
X0071800Y0026800D03*
X0058650Y0056036D03*
X0048650Y0056036D03*
X0031800Y0046800D03*
X0031800Y0086800D03*
X0123095Y0175950D03*
X0123095Y0185950D03*
X0111800Y0191800D03*
X0133233Y0169950D03*
X0133233Y0159950D03*
X0145800Y0159800D03*
X0145800Y0169800D03*
X0158052Y0169650D03*
X0158052Y0159650D03*
X0136800Y0180800D03*
X0144300Y0185800D03*
X0136800Y0190800D03*
X0071800Y0191800D03*
X0133414Y0112824D03*
D13*
X0181146Y0189595D03*
X0185871Y0192745D03*
X0181146Y0195894D03*
X0185871Y0199044D03*
X0181146Y0202194D03*
X0154398Y0208670D03*
X0146524Y0208670D03*
X0138650Y0208670D03*
D14*
X0130776Y0208670D03*
X0162272Y0208670D03*
D15*
X0108829Y0176367D02*
X0103629Y0176367D01*
X0103629Y0166367D02*
X0108829Y0166367D01*
X0108829Y0156367D02*
X0103629Y0156367D01*
X0103629Y0146367D02*
X0108829Y0146367D01*
X0108829Y0136367D02*
X0103629Y0136367D01*
X0103629Y0126367D02*
X0108829Y0126367D01*
X0108829Y0116367D02*
X0103629Y0116367D01*
X0103629Y0106367D02*
X0108829Y0106367D01*
X0108829Y0096367D02*
X0103629Y0096367D01*
X0103629Y0086367D02*
X0108829Y0086367D01*
X0108829Y0076367D02*
X0103629Y0076367D01*
X0103629Y0066367D02*
X0108829Y0066367D01*
X0108829Y0056367D02*
X0103629Y0056367D01*
X0103629Y0046367D02*
X0108829Y0046367D01*
X0078829Y0046367D02*
X0073629Y0046367D01*
X0073629Y0056367D02*
X0078829Y0056367D01*
X0078829Y0066367D02*
X0073629Y0066367D01*
X0073629Y0076367D02*
X0078829Y0076367D01*
X0078829Y0086367D02*
X0073629Y0086367D01*
X0073629Y0096367D02*
X0078829Y0096367D01*
X0078829Y0106367D02*
X0073629Y0106367D01*
X0073629Y0116367D02*
X0078829Y0116367D01*
X0078829Y0126367D02*
X0073629Y0126367D01*
X0073629Y0136367D02*
X0078829Y0136367D01*
X0078829Y0146367D02*
X0073629Y0146367D01*
X0073629Y0156367D02*
X0078829Y0156367D01*
X0078829Y0166367D02*
X0073629Y0166367D01*
X0073629Y0176367D02*
X0078829Y0176367D01*
D16*
X0201225Y0181524D03*
X0201225Y0210265D03*
D17*
X0133414Y0092824D03*
D18*
X0129871Y0096367D01*
X0106229Y0096367D01*
X0106229Y0106367D02*
X0121662Y0121800D01*
X0173800Y0121800D01*
X0180800Y0126800D02*
X0185800Y0131800D01*
X0191800Y0126800D02*
X0204300Y0126800D01*
X0203867Y0136367D02*
X0204300Y0136800D01*
X0203867Y0136367D02*
X0106229Y0136367D01*
X0106229Y0146367D02*
X0106662Y0146800D01*
X0204300Y0146800D01*
X0199300Y0151800D02*
X0204300Y0156800D01*
X0199300Y0151800D02*
X0110796Y0151800D01*
X0106229Y0156367D01*
X0116800Y0176367D02*
X0111800Y0181367D01*
X0111800Y0191800D01*
X0101800Y0201800D01*
X0068800Y0201800D01*
X0058300Y0212300D01*
X0068300Y0212300D02*
X0092300Y0212300D01*
X0092800Y0211800D01*
X0071800Y0191800D02*
X0071800Y0180796D01*
X0076229Y0176367D01*
X0076229Y0166367D02*
X0066662Y0156800D01*
X0016800Y0156800D01*
X0016800Y0146800D02*
X0066662Y0146800D01*
X0076229Y0156367D01*
X0065796Y0136800D02*
X0076229Y0126367D01*
X0076229Y0116367D02*
X0065796Y0126800D01*
X0016800Y0126800D01*
X0016800Y0136800D02*
X0065796Y0136800D01*
X0053800Y0101800D02*
X0059233Y0096367D01*
X0076229Y0096367D01*
X0076229Y0086367D02*
X0058367Y0086367D01*
X0053800Y0081800D01*
X0041800Y0076800D02*
X0041800Y0096800D01*
X0031800Y0106800D01*
X0016800Y0106800D01*
X0041800Y0076800D02*
X0052233Y0066367D01*
X0076229Y0066367D01*
X0076796Y0065800D01*
X0085800Y0065800D01*
X0093800Y0057800D01*
X0093800Y0050800D01*
X0106229Y0046367D02*
X0111367Y0046367D01*
X0121800Y0056800D01*
X0156800Y0056800D01*
X0166800Y0066800D01*
X0176800Y0071800D02*
X0181800Y0076800D01*
X0176800Y0071800D02*
X0131800Y0071800D01*
X0116367Y0056367D01*
X0106229Y0056367D01*
X0106229Y0066367D02*
X0121367Y0066367D01*
X0131800Y0076800D01*
X0146800Y0076800D01*
X0186800Y0116800D01*
X0204300Y0116800D01*
X0204300Y0106800D02*
X0186800Y0106800D01*
X0191800Y0126800D02*
X0146800Y0081800D01*
X0131800Y0081800D01*
X0126367Y0076367D01*
X0106229Y0076367D01*
X0121800Y0046800D02*
X0111800Y0036800D01*
X0085796Y0036800D01*
X0076229Y0046367D01*
X0076229Y0056367D02*
X0059320Y0056367D01*
X0058650Y0056036D01*
X0058650Y0053650D01*
X0051800Y0046800D01*
X0071800Y0026800D01*
X0081800Y0026800D02*
X0086800Y0026800D01*
X0091800Y0031800D01*
X0128800Y0031800D01*
X0135800Y0038800D01*
X0135800Y0027300D02*
X0107300Y0027300D01*
X0106800Y0026800D01*
X0121800Y0046800D02*
X0186800Y0046800D01*
X0180800Y0126800D02*
X0121800Y0126800D01*
X0111367Y0116367D01*
X0106229Y0116367D01*
X0133233Y0169950D02*
X0131950Y0171233D01*
X0131950Y0175950D01*
X0136800Y0180800D02*
X0145800Y0171800D01*
X0145800Y0169800D01*
X0157800Y0169902D02*
X0157800Y0180800D01*
X0152800Y0185800D01*
X0151800Y0185800D01*
X0157800Y0169902D02*
X0158052Y0169650D01*
X0051800Y0046800D02*
X0031800Y0046800D01*
X0040800Y0041800D02*
X0040800Y0028800D01*
D19*
X0176800Y0096800D02*
X0204300Y0096800D01*
X0131950Y0175950D02*
X0136800Y0180800D01*
X0131950Y0175950D02*
X0123095Y0175950D01*
X0122678Y0176367D01*
X0116800Y0176367D01*
X0106229Y0176367D01*
X0144300Y0185800D02*
X0151800Y0185800D01*
X0162800Y0185800D01*
X0166800Y0181800D01*
X0159005Y0189595D02*
X0146800Y0201800D01*
X0146800Y0208394D01*
X0146524Y0208670D01*
X0159005Y0189595D02*
X0181146Y0189595D01*
D20*
X0166800Y0181800D03*
X0185800Y0131800D03*
X0173800Y0121800D03*
X0186800Y0106800D03*
X0176800Y0096800D03*
X0181800Y0076800D03*
X0166800Y0066800D03*
X0186800Y0046800D03*
X0093800Y0050800D03*
X0040800Y0041800D03*
M02*
